<svg xmlns="http://www.w3.org/2000/svg" version="1.1" id="Layer_1" x="0px" y="0px" width="70px" height="70px" viewBox="0 0 70 70" enable-background="new 0 0 70 70" xml:space="preserve"><metadata/><rect width="70" fill="none" height="70"/><linearGradient id="SVGID_1_" gradientTransform="matrix(1 0 0 1 -542 -722)" gradientUnits="userSpaceOnUse" x1="600.5498" x2="600.5498" y1="748.4561" y2="766.6562"><stop offset="0.3352" style="stop-color:#EE2D31"/><stop offset="0.6915" style="stop-color:#E62126"/><stop offset="0.7841" style="stop-color:#A51E22"/><stop offset="0.8719" style="stop-color:#9D1D20"/><stop offset="0.9551" style="stop-color:#941B1E"/><stop offset="1" style="stop-color:#801518"/></linearGradient><path fill="url(#SVGID_1_)" d="M62.6,26.5l-9.699,14C51.6,42.3,49.6,44.1,47.1,44.3v0.4H53.7c2.899,0,4.899-1.9,6.3-3.9l10-14.3   H62.6L62.6,26.5z"/><path fill="#1A2652" d="M31.7,44.5v-18H50.6v3.1H36.9v5.5H50.3v3.3H36.9v6.1H31.7z M22,42.3c-0.7-1.1-1.3-2-1.3-2H8.4l-2.8,4.2H0.8   l11.8-17.6h5.1l12.4,17.6h-3.9C23.8,44.5,22.8,43.4,22,42.3z M10.4,37.4h8.3l-4.1-6.3L11,36.3L10.4,37.4z"/><rect width="70" fill="none" height="70"/></svg>