<svg xmlns="http://www.w3.org/2000/svg" version="1.1" id="Layer_1" x="0px" y="0px" width="70" height="70" viewBox="0 0 70 70" xml:space="preserve" style="enable-background:new 0 0 70 70;"><style type="text/css">
	.st0{fill:none;stroke:#58595B;stroke-width:0.25;stroke-miterlimit:10;}
	.st1{fill:url(#path3677_1_);}
	.st2{fill:#ED1C28;}
</style><rect x="-266.5" y="-119.1" width="451.3" height="263.2" class="st0"/><g id="Artboard"><g id="BA" transform="translate(-6.000000, -6.000000)"><g id="g3655" transform="translate(238.249875, 53.072536) scale(-1, 1) rotate(-180.000000) translate(-238.249875, -53.072536) translate(186.216857, 29.946750)"><g id="g3657"><g id="g3663"><g id="g3665"><linearGradient id="path3677_1_" gradientTransform="matrix(97.6255 0 0 44.3957 17499.293 35.6146)" gradientUnits="userSpaceOnUse" x1="-180.4498" x2="-180.5363" y1="-9.274644e-02" y2="-0.1601"><stop offset="0" style="stop-color:#E0E3F3"/><stop offset="0.4" style="stop-color:#4F71B7"/><stop offset="0.9" style="stop-color:#0054A6"/><stop offset="1" style="stop-color:#0054A6"/></linearGradient><path id="path3677" d="M-116.2,35.9c-1.9-1.9-6-3.5-8-4.2l0,0c-2.8-1-4-1.4-5.5-1.9l0,0c-1.7-0.6-5.2-1.6-5.2-1.6        l0,0c7.2-2.1,12.3-2.8,12.3-2.8l0,0c0,0,2.4,0.7,6.1,2.7l0,0c2,1,3,1.7,3.8,2.4l0,0c0.3,0.2,0.9,0.9,1.1,1.8l0,0        c0,0.1,0,0.2,0,0.3l0,0v0.1c0,0,0,0.1,0,0.2l0,0c0,0.1,0,0.2,0,0.2l0,0c0,0,0,0.2-0.1,0.4l0,0c-0.1,0.1-0.3,0.6-0.7,0.9l0,0        c-0.3,0.2-0.7,0.7-2.3,1.3l0,0c-0.5,0.2-1.4,0.4-1.4,0.4l0,0L-116.2,35.9L-116.2,35.9z" class="st1"/></g></g></g></g><g id="g3679" transform="translate(145.727868, 24.168447) scale(-1, 1) rotate(-180.000000) translate(-145.727868, -24.168447) translate(0.727868, 0.668447)"><g id="g3681-Clipped" transform="translate(0.000000, 0.000000)"><g id="g3681" transform="translate(0.482702, 0.377358)"><g id="g3687" transform="translate(144.859675, 22.266517) scale(-1, 1) rotate(-180.000000) translate(-144.859675, -22.266517) translate(3.934694, 2.091045)"><g id="g3689" transform="translate(0.948571, 1.093318)"><path id="path3691" d="M68.6,37.4c0,0,0-0.2-0.1-0.4c0-0.2-0.1-0.3-0.2-0.4c-0.1-0.2-0.3-0.4-0.5-0.6         c-0.2-0.2-0.4-0.3-0.6-0.5c-1-0.6-2.3-1-3.4-1.2c-1.7-0.2-3.7-0.2-3.9-0.2c-0.6,0-4.8,0-5.9,0c-4.8,0.1-10.6,0.1-12.1,0.1         c-15.7,0.1-22.6-0.3-30.2-1.8c-6.5-1.3-10.1-2.5-10.1-2.5c5.7-0.2,39.1-1.6,45.2-1.7c4-0.1,6.8-0.1,9.1,0         c1.2,0.1,2.2,0.2,3.6,0.4c1.2,0.2,2.3,0.6,3,0.8c1.4,0.5,2.5,1.2,3.1,1.9c0,0,0.2,0.2,0.4,0.5c0.3,0.3,0.5,0.8,0.6,0.9         c0.8,1.2,1.2,2,1.4,2.3c0.1,0.3,0.3,0.6,0.4,0.9c0.1,0.3,0.2,0.5,0.2,0.6c0.1,0.3,0.1,0.6,0.1,0.6L68.6,37.4z" class="st2"/></g></g></g></g></g></g></g></svg>