<svg xmlns="http://www.w3.org/2000/svg" version="1.1" id="Layer_1" x="0px" y="0px" width="70px" height="70px" viewBox="0 0 70 70" enable-background="new 0 0 70 70" xml:space="preserve"><rect width="70" fill="none" height="70"/><path fill="#8F959C" d="M19,14.8l16.7-1c-8.8-0.3-14-0.3-15.7-0.1l-2.5,0.5C17.3,14.6,17.8,14.7,19,14.8L19,14.8z"/><path fill="#8F959C" d="M15.3,19l27.4-0.6l-26.5-0.9c-3.5-0.2-5.5,0-5.8,0.6C9.9,19,11.6,19.3,15.3,19L15.3,19z"/><path fill="#8F959C" d="M5.6,24.3L47,22.8L9.8,22.4c-2.8,0-4.3,0.3-4.3,0.9L5.6,24.3L5.6,24.3z"/><path fill="#8F959C" d="M8.4,29.8L50,27.9L5,27.2c-1.2,0.1-1.8,0.4-1.9,1C2.8,29.5,4.6,30,8.4,29.8L8.4,29.8z"/><path fill="#8F959C" d="M2.4,34.6l49.2-1.2L6.1,32.1c-2.9,0-4.5,0.5-4.7,1.6C1.4,34.1,1.7,34.5,2.4,34.6L2.4,34.6z"/><path fill="#8F959C" d="M2,39.6L17.6,39.4l2.2-2.5H4.2c-2.3,0-3.4,0.5-3.1,1.6C1.1,39.1,1.4,39.5,2,39.6L2,39.6z"/><path fill="#8F959C" d="M5.5,44.8l9.9-0.7l1.3-2.199L5.1,42c-2.2,0-3.3,0.5-3.3,1.4c0,0.699,0.3,1.1,0.8,1.199L5.5,44.8L5.5,44.8z"/><path fill="#8F959C" d="M7,49.5l25.1-1l-1.8-1.8L6.1,46.9l-2.5,0.3c-0.3,0.2-0.4,0.6-0.3,1.1C3.5,49.4,4.8,49.8,7,49.5L7,49.5z"/><path fill="#8F959C" d="M35.4,52.6l-25-0.199C7.3,52.4,6,52.8,6.1,53.6c0.3,1.102,2,1.4,5.2,1.102L36.9,54.1L35.4,52.6L35.4,52.6z"/><path fill="#8F959C" d="M38.5,57.7l-26.8-0.2c-0.6,0-0.9,0.2-0.9,0.7c0,0.899,1.9,1.3,5.6,1.1L41.2,58.4L38.5,57.7L38.5,57.7z"/><path fill="#8F959C" d="M21.6,62.9l14.7-0.5L20.9,61.8c-2.1-0.3-3.1-0.1-3.1,0.601L21.6,62.9L21.6,62.9z"/><path fill="#FFFFFF" d="M27.8,47.2l-9.5,2.1c0,0,2.9-14.2,3-14.4c0.1-0.2,5.3-4.9,5.4-4.9c0.1,0,5,3.6,5.1,3.9   c0.1,0.2-0.4,5.8-0.4,6C31.4,40,27.8,47.2,27.8,47.2z"/><path fill="#6D1E4B" d="M63.4,7.9C58.1,10.2,47.7,16.2,32.3,26.2c7.9-4.4,15.2-7.8,22-10.3l12-4l2.3,0.2   c0.5,0.3-0.199,0.7-1.898,1.2c-2.801,0.9-8,3.1-15.7,6.6c-8.8,4-13.899,6.8-15.3,8.6L45.9,28.7c-1.5,1.8-3.199,2.8-5.301,2.9   L38.7,31.7c2.2,3.6,5.899,5.7,10.899,6l3.399,0.2l0.2,2.6l-14.301,1.4L52.7,42.8c0.2,2.101,0.1,3.101-0.2,3.101h-14L51.3,47.8   L50.6,51L39,51.9L49.3,53L46.9,56.3L40.6,57.1l4.9,1.102L40.2,61.9c-3.8-3.801-6.7-7-8.5-9.5l-3.8-5.199l-5.2,1.1   c4.5-3.199,6.9-5.699,7.3-7.199c-0.1-2.801-0.3-4.699-0.6-5.801l-1.9,1.9c-0.3-2.8-0.8-4.6-1.2-5.3l-0.7,2.2l-3.1,2.7l2.2-0.199   C23.3,44.1,20.3,48.9,15.5,50.9L12.7,48l1.9-1.8L11.7,47.1L11.1,46.2c2.9-4.8,5.1-8.101,6.9-10l8.5-7.8c4.8-4,9.2-7.3,13.4-10   C50.7,12,58.6,7.8,63.4,6C65.3,5.3,66,5.4,65.6,6.2L63.4,7.9L63.4,7.9z"/></svg>