<svg xmlns="http://www.w3.org/2000/svg" version="1.1" id="Layer_1" x="0px" y="0px" width="70" height="70" viewBox="0 362 70 70" xml:space="preserve"><metadata id="metadata158"/><defs id="defs156"/><style id="style111" type="text/css">

	.st0{fill:#D71920;}

	.st1{fill:#FFFFFF;}

</style><rect id="rect113" x="0" y="362" width="70" height="70" style="fill:#d71920" class="st0"/><g id="g151" transform="translate(270)"><g id="g147"><path id="path115" d="m -230.8,375.2 c -0.1,0.1 -2.2,2 -2.4,2.2 -0.2,0.2 -0.7,1 -0.7,2 0,0.2 0,6.1 0,6.3 0,0.4 -0.3,1.1 -0.5,1.3 -0.2,0.2 -1.1,1 -1.2,1.1 h 0.6 c 0.2,-0.2 2.1,-1.8 2.3,-2.1 0.3,-0.3 0.9,-1 0.9,-2.2 0,-0.3 0,-5.8 0,-6.1 0,-0.9 0.4,-1.4 0.6,-1.7 0.2,-0.3 1,-0.9 1.1,-1 z" style="fill:#ffffff" class="st1"/><path id="path117" d="m -230.4,391.5 v 2.5 c 0,0 0.7,0.8 0.9,0.9 0.7,0.7 0.7,2 -1.5,4.2 -0.4,0.4 -1.5,1.4 -2.9,1.4 h -3.9 l 2.3,2 h 1.5 c 1.6,0 3,-0.7 3.9,-1.6 0.9,-0.9 1.3,-2.2 1.3,-3.4 v -3.3 c 0,-1.1 -0.7,-1.8 -0.9,-1.9 0,-0.2 -0.7,-0.8 -0.7,-0.8" style="fill:#ffffff" class="st1"/><path id="path119" d="m -245.5,383.2 h -0.8 c 0.5,0.3 0.9,1.1 0.9,1.6 0,0.4 0,2.9 0,3.1 0,0.8 0.6,3.9 3.4,3.9 h 8.1 c 0,0 0,5 0,5.2 0,0.8 -0.3,1.3 -0.5,1.6 -0.2,0.2 -1.2,1.2 -1.2,1.2 h 0.6 c 0.2,-0.2 2,-1.8 2.2,-2 0.4,-0.5 0.9,-1 0.9,-2.6 v -3.3 c 0,0 0.7,-0.8 0.9,-0.9 0.2,-0.2 1.6,-1.5 1.6,-1.5 0,1.3 0.6,1.8 1.2,1.8 0.3,0 0.6,-0.1 0.8,-0.4 0.3,-0.3 1.2,-1.2 1.5,-1.4 0.7,-0.6 1,-2.7 -0.6,-2.7 0,0 0,0 0,0 -1,0 -2.1,1.4 -2.2,1.6 -0.4,-0.2 -0.7,-0.7 -0.7,-0.7 v 1.2 c -0.1,0.2 -0.8,0.7 -1.3,0.7 h -1.3 v -1.2 c 0,-0.6 0.2,-1.2 0.5,-1.5 0.2,-0.2 1.2,-1.1 1.2,-1.2 h -0.6 c -0.2,0.2 -2.2,2 -2.4,2.2 -0.4,0.5 -0.7,1.4 -0.7,1.7 0,0 -8.9,0 -9.1,0 -1.1,0 -1.9,-1.1 -1.9,-2.1 0,-0.1 0,-2.3 0,-2.3 0.1,-1.8 -0.4,-2 -0.5,-2 m 18.5,6.8 c -0.2,0 -0.4,-0.1 -0.7,-0.3 -0.3,-0.2 -0.8,-0.9 -0.8,-0.9 0.2,-0.2 0.6,-0.3 0.9,-0.3 0.3,0 0.5,0.1 0.7,0.2 0.5,0.7 0.4,1.3 -0.1,1.3" style="fill:#ffffff" class="st1"/><path id="path121" d="m -239.7,392.8 -1.5,1.5 c 1.1,1.1 1.4,1.6 1.5,2.1 0.1,-0.1 1.5,-1.3 1.5,-1.7 0,-0.6 -0.5,-0.8 -1.5,-1.9" style="fill:#ffffff" class="st1"/><path id="path123" d="m -236.4,375.2 c 0,0 -0.3,0.3 -1.1,1 -0.4,0.4 -0.3,1.3 0.6,2.2 0,0 0,1.6 0,2.2 0,0.2 -0.2,0.4 -0.2,0.4 0,0 -1.3,-1.1 -2.4,-1.1 h -1.7 c -1.1,0 -2,1 -2.1,1.1 -0.6,0.6 -0.6,1.6 -0.1,2.1 0.2,0.2 1.2,1.2 1.2,1.2 0,0 -0.3,-1.9 0,-3.2 0.1,-0.3 0.4,-0.6 0.8,-0.6 0.1,0 0.3,0 0.4,0.1 1,0.6 2.4,2 2.4,2 0,0 -3.1,3.3 -3.2,3.4 -0.1,0.1 -0.6,0.5 -1,0.5 0,0 0,0 0,0 -0.5,0 -0.7,-0.3 -1,-0.5 0,0 0,1.5 0,1.6 0,0.5 0.7,1.1 1.4,1.1 h 4.3 c 0.3,0 0.6,-0.1 0.9,-0.4 0.2,-0.2 1.3,-1.3 1.4,-1.4 0.2,-0.2 0.3,-0.5 0.3,-0.8 0,-0.2 0,-0.9 0,-1.6 0,-1.6 -1.2,-2.8 -1.2,-2.8 0,0 0.3,-0.2 0.3,-0.9 0,-0.2 0,-1.7 0,-1.7 0,0 0.5,0.5 0.5,0.7 0,0 0.5,-0.6 0.9,-0.9 0.4,-0.4 -0.3,-1.2 -0.6,-1.5 -0.9,-1.3 -0.8,-2.2 -0.8,-2.2 m -5.4,11.2 c 0.4,-0.2 0.5,-0.3 0.9,-0.8 0.1,-0.1 2.7,-2.8 2.7,-2.8 0,0 1.5,1.6 2,2.4 0.2,0.4 0.5,1.2 -0.8,1.2 h -4.8" style="fill:#ffffff" class="st1"/><path id="path125" d="m -246.4,390 h -0.8 c 0,0 0.9,0.5 0.9,1.7 v 3.9 c 0,2.5 2.1,4.8 4.6,4.8 h 2.1 c 1.3,0 1.7,-0.3 2.5,-1 0.3,-0.2 0.6,-0.7 0.8,-0.8 0.4,-0.5 0.9,-0.9 0.9,-2.2 v -1.3 c 0,-1.1 -0.6,-1.5 -0.9,-1.8 -0.2,-0.2 -0.7,-0.7 -0.7,-0.7 v 2.6 c 0,0 0.5,0.6 0.8,0.7 1.1,0.9 0.2,2.4 -0.8,2.4 -0.2,0 -4.3,0 -4.6,0 0,0 0,0 -0.1,0 -1.7,0 -3.9,-1.5 -3.9,-4 v -2.1 c -0.2,-2.2 -0.8,-2.2 -0.8,-2.2" style="fill:#ffffff" class="st1"/><path id="path127" d="m -242.8,392.8 -1.5,1.5 c 1.1,1.1 1.4,1.6 1.5,2.1 0.1,-0.1 1.5,-1.3 1.5,-1.7 -0.1,-0.6 -0.5,-0.8 -1.5,-1.9" style="fill:#ffffff" class="st1"/><path id="path129" d="m -258.7,402.5 h -5.3 c 0,0 0.9,0.8 0.9,2.4 v 6.4 c 0,1.6 0.7,1.7 0.7,1.7 h 5.2 c 1.2,0 1.6,-0.8 1.6,-1.3 v -0.6 c 0,0 -0.4,0.8 -1.9,0.8 -0.3,0 -2.2,0 -2.5,0 -0.8,0 -0.8,-0.7 -0.8,-1.2 v -3.5 c 0,0 1.6,0 1.8,0 0.5,0 1.1,0 1.7,0.4 0,0 -0.6,-1.4 -2.4,-1.4 h -1.1 v -0.7 -0.4 c 0,0 0,-1 -0.2,-1.3 0,0 1.5,0 1.6,0 1.4,0 2.5,0 3.6,0.7 0.1,-0.1 -0.2,-2 -2.9,-2" style="fill:#ffffff" class="st1"/><path id="path131" d="m -250.4,404.6 c -1.7,0 -2.1,1.6 -2.1,1.6 0,0 0,-1.6 -1.4,-1.6 h -1.3 c 0,0 0.8,0.3 0.8,1.7 v 5 c 0,1.7 0.7,1.7 0.7,1.7 h 2.2 c -0.1,0 -0.8,-0.6 -0.8,-1.7 v -4.4 c 0,-0.2 0.4,-0.9 1.3,-0.9 0.5,0 1.1,0.6 1.1,1.2 v 4.1 c 0,1.7 0.7,1.7 0.7,1.7 h 2.2 c 0,0 -0.8,-0.6 -0.8,-1.7 v -4.4 c 0.1,-0.2 0.4,-0.9 1.2,-0.9 0.7,0 1.2,0.6 1.2,1.2 0,0 0,3.8 0,4.1 0,1.7 0.6,1.7 0.7,1.7 v 0 c 1.2,0 2.2,0 2.2,0 0,0 -0.8,-0.6 -0.8,-1.7 v -4.5 c 0,-1.8 -1.4,-2.2 -2.5,-2.2 -1.4,0 -1.8,1.2 -2,1.6 -0.6,-1.1 -1.7,-1.6 -2.6,-1.6" style="fill:#ffffff" class="st1"/><path id="path133" d="m -241.1,404.6 h -1.3 c 0,0 0.8,0.3 0.8,1.7 v 5 0 c 0,1.7 0.7,1.7 0.7,1.7 v 0 c 1.2,0 2.2,0 2.2,0 0,0 -0.9,-0.6 -0.9,-1.7 v 0 -4.8 c -0.1,-1.9 -1.1,-1.9 -1.5,-1.9" style="fill:#ffffff" class="st1"/><path id="path135" d="m -237.2,404.6 h -1.3 c 0,0 0.8,0.3 0.8,1.7 v 5 c 0,1.7 0.7,1.7 0.7,1.7 h 2.2 c -0.1,0 -0.8,-0.6 -0.8,-1.7 v -4.1 c 0.1,-0.4 0.2,-0.7 0.5,-0.8 0.3,-0.2 0.6,-0.3 1,-0.3 0.5,0 1,0.2 1.3,0.6 v -1.4 c 0,0 -0.2,-0.6 -1.1,-0.6 -1.4,0 -1.7,1.6 -1.7,1.6 -0.2,-1.3 -0.6,-1.7 -1.6,-1.7" style="fill:#ffffff" class="st1"/><path id="path137" d="m -223.1,402.7 c 0,0 -0.5,0.8 -1.5,1.7 -0.6,0.5 -1.9,1.2 -1.9,1.2 h 1.4 v 5.8 c 0,1.6 0.7,1.6 0.7,1.6 1.2,0 2.2,0 2.2,0 0,0 -0.9,-0.6 -0.9,-1.6 v -5.8 c 0.6,0 0.2,0 0.5,0 0.7,0 1.3,0.3 1.3,0.3 v -1.3 h -1.9 z" style="fill:#ffffff" class="st1"/><path id="path139" d="m -217.6,404.6 v 0 c -2.3,0 -3.5,2.1 -3.5,4.4 0,2.3 1.5,4 3.7,4 1.8,0 2.4,-0.7 2.4,-0.7 V 411 c -0.5,0.9 -1.1,1.1 -1.7,1.1 -0.4,0 -0.8,-0.1 -0.9,-0.2 -1,-0.5 -1.1,-1.7 -1.1,-1.7 0.8,-0.9 1.8,-0.7 3,-2 1.5,-1.8 0.3,-3.6 -1.9,-3.6 m -1.4,4.6 c 0,0 -0.3,-3.9 1.2,-4 0,0 0.1,0 0.1,0 1.1,0 0.9,1.6 0.5,2.3 -0.6,1.1 -1.3,1.2 -1.8,1.7" style="fill:#ffffff" class="st1"/><path id="path141" d="m -240.7,401.9 c -0.6,0 -1,0.5 -1,1 0,0.5 0.5,1 1,1 0.6,0 1,-0.5 1,-1 0,-0.5 -0.4,-1 -1,-1" style="fill:#ffffff" class="st1"/><path id="path143" d="m -229.8,404.6 c -1.3,0 -2.1,0.6 -2.1,0.6 v 1.5 c 0,0 0.5,-1.2 1.6,-1.2 1.1,0 1.2,0.6 1.2,0.8 0,0 0.1,0.4 -0.2,0.9 -0.5,0.9 -4.5,1.1 -3.9,4.2 0.2,1.2 1.1,1.6 2.1,1.6 1,0 1.6,-0.5 1.8,-1 0.1,0.9 0.6,1 0.6,1 1.2,0 2.2,0 2.2,0 0,0 -0.9,-0.6 -0.9,-1.7 v -4.7 c 0.2,-1.1 -1.1,-2 -2.4,-2 m -0.8,7.4 c -0.5,0 -0.9,-0.5 -0.9,-1.1 0,-2.1 1.7,-2.4 2.2,-2.9 v 3.5 c -0.2,0.2 -0.4,0.5 -1.3,0.5" style="fill:#ffffff" class="st1"/><path id="path145" d="m -211.7,404.6 c -1.3,0 -2.5,0.9 -2.5,2 0,1 0.4,1.6 1.2,2.2 0.3,0.2 0.7,0.5 1.1,0.7 0.6,0.4 0.9,0.8 0.9,1.2 0,0.6 -0.5,1.4 -1.6,1.4 -1.1,0 -1.6,-1.2 -1.6,-1.2 v 1.5 c 0,0 0.8,0.6 2.1,0.6 1.5,0 3,-1.1 3,-2.7 0,-0.6 -0.2,-1 -0.5,-1.5 -0.5,-0.7 -1.4,-1.2 -2.2,-1.6 -0.4,-0.3 -0.6,-0.7 -0.6,-0.9 0,-0.3 0.1,-0.8 1.2,-0.8 1.1,0 1.6,1.2 1.6,1.2 v -1.4 c 0,-0.1 -0.8,-0.7 -2.1,-0.7" style="fill:#ffffff" class="st1"/></g><path id="path149" d="m -207.3,403.5 c 0.1,-0.1 0.1,-0.2 0.1,-0.3 0,-0.3 -0.1,-0.4 -0.4,-0.4 h -0.2 v 0.8 h 0.2 c 0.2,0 0.2,0 0.3,-0.1 m 0.7,1.2 h -0.4 l -0.2,-0.5 c -0.2,-0.3 -0.3,-0.4 -0.4,-0.4 v 0 0.9 h -0.4 v -2.1 h 0.6 c 0.5,0 0.8,0.2 0.8,0.6 0,0.2 -0.1,0.3 -0.2,0.4 -0.1,0.1 -0.2,0.1 -0.3,0.1 0.1,0.1 0.2,0.2 0.3,0.4 z m 0.1,-2.1 c -0.3,-0.3 -0.6,-0.4 -1,-0.4 -0.4,0 -0.7,0.1 -1,0.4 -0.3,0.3 -0.4,0.6 -0.4,1 0,0.4 0.1,0.7 0.4,1 0.3,0.3 0.6,0.4 1,0.4 0.4,0 0.7,-0.1 1,-0.4 0.3,-0.3 0.4,-0.6 0.4,-1 0,-0.3 -0.1,-0.7 -0.4,-1 m 0.3,2.2 c -0.4,0.3 -0.8,0.5 -1.2,0.5 -0.5,0 -0.9,-0.2 -1.2,-0.5 -0.4,-0.3 -0.5,-0.7 -0.5,-1.2 0,-0.5 0.2,-0.8 0.5,-1.2 0.3,-0.3 0.8,-0.5 1.2,-0.5 0.5,0 0.9,0.2 1.2,0.5 0.4,0.3 0.5,0.7 0.5,1.2 0,0.5 -0.2,0.9 -0.5,1.2" style="fill:#ffffff" class="st1"/></g></svg>