<svg xmlns="http://www.w3.org/2000/svg" version="1.1" id="Layer_1" x="0px" y="0px" width="70px" height="70px" viewBox="0 0 70 70" enable-background="new 0 0 70 70" xml:space="preserve"><metadata/><rect width="70" fill="none" height="70"/><path fill="#D52B35" d="M6.7,58.2C20.9,59.5,26.2,59.6,32.8,59.6C39,59.4,43.7,60.3,49,54.7c5.5-5.7,4.9-8.7,1.5-7.8   c-4.9,1.5-23,7.6-44.2,10.6C5.3,57.6,5.6,58.1,6.7,58.2L6.7,58.2z"/><path fill="#F8CE4A" d="M1.9,56.6C16.4,52.9,52.8,33.4,58.2,29.9c2.7-1.7,5.6-0.7,0.899,7C55.9,41.6,53.6,44.1,45.2,46.9   C34.9,50.3,24,53.3,2.3,57.3C1.1,57.5,0.8,57,1.9,56.6L1.9,56.6z"/><path fill="#5B8F4D" d="M3.3,55.6C16,51.2,43.6,36.6,53,30.9c6.8-4.1,12-7.2,14-12.3c1.1-2.9,1.7-5.4,1.9-7.5V7.5   C68.6,5.6,67.8,4.6,66.6,4.4h-0.5c-0.699,0.1-1.5,0.5-2.3,1.2C58.6,10.8,33.7,37,1.7,55.4C1.3,55.6,1.2,56.3,3.3,55.6L3.3,55.6z"/></svg>