<svg xmlns="http://www.w3.org/2000/svg" version="1.1" id="Layer_1" x="0px" y="0px" width="70" height="70" viewBox="0 0 70 70" xml:space="preserve" style="enable-background:new 0 0 70 70;"><style type="text/css">
	.st0{clip-path:url(#SVGID_1_);}
	.st1{clip-path:url(#SVGID_2_);}
	.st2{clip-path:url(#SVGID_3_);}
	.st3{clip-path:url(#SVGID_4_);fill:#D5A51B;}
	.st4{clip-path:url(#SVGID_4_);fill:#AD802D;}
	.st5{clip-path:url(#SVGID_4_);fill:#7E3F1B;}
	.st6{clip-path:url(#SVGID_4_);fill:#DAD5C8;}
	.st7{clip-path:url(#SVGID_4_);fill:#E6E1D3;}
	.st8{clip-path:url(#SVGID_4_);fill:#F8F2E5;}
	.st9{clip-path:url(#SVGID_4_);fill:#747174;}
	.st10{clip-path:url(#SVGID_4_);fill:#FFFFFF;}
	.st11{clip-path:url(#SVGID_5_);}
	.st12{clip-path:url(#SVGID_6_);}
	.st13{clip-path:url(#SVGID_7_);}
	.st14{clip-path:url(#SVGID_9_);}
	.st15{clip-path:url(#SVGID_10_);}
	.st16{clip-path:url(#SVGID_12_);}
	.st17{clip-path:url(#SVGID_14_);}
	.st18{clip-path:url(#SVGID_15_);}
	.st19{clip-path:url(#SVGID_16_);}
	.st20{clip-path:url(#SVGID_18_);}
	.st21{clip-path:url(#SVGID_19_);}
	.st22{clip-path:url(#SVGID_21_);}
	.st23{clip-path:url(#SVGID_22_);}
	.st24{clip-path:url(#SVGID_23_);}
	.st25{clip-path:url(#SVGID_24_);}
	.st26{clip-path:url(#SVGID_25_);}
	.st27{clip-path:url(#SVGID_27_);}
	.st28{clip-path:url(#SVGID_30_);}
	.st29{clip-path:url(#SVGID_31_);}
	.st30{clip-path:url(#SVGID_32_);}
	.st31{clip-path:url(#SVGID_34_);}
	.st32{clip-path:url(#SVGID_35_);}
	.st33{clip-path:url(#SVGID_36_);}
	.st34{clip-path:url(#SVGID_38_);}
	.st35{clip-path:url(#SVGID_39_);}
	.st36{clip-path:url(#SVGID_42_);}
	.st37{clip-path:url(#SVGID_43_);}
	.st38{clip-path:url(#SVGID_44_);}
	.st39{clip-path:url(#SVGID_46_);}
	.st40{clip-path:url(#SVGID_48_);}
	.st41{clip-path:url(#SVGID_2_);fill:#FFFFFF;}
	.st42{fill:#A58933;}
</style><g><defs><rect id="SVGID_103_" width="70" height="70"/></defs><clipPath id="SVGID_1_"><use xmlns:xlink="http://www.w3.org/1999/xlink" style="overflow:visible;" xlink:href="#SVGID_103_"/></clipPath><g class="st0"><defs><path id="SVGID_105_" d="M18.1,8.5c3.9,0,10,5.7,10,5.7L71.9,58c10.1,10.4,18,13.6,22.8,14.4l59.3,0l40.5,0h199.6     c45.6,0,60.2,12,60.2,12s2.4,1.2,7.3,6.8c0,0,6.8,5.1,10.6,9.6c0,0,1.9,2.2,0,4.5c-3.2,3.9-10.1,7.8-27.8,9.7c0,0-0.6,0-2.1,0.1     l-10.7,0.4c-6.2,0.2-17.5,0.6-31,0.9h-85.8l-74.7,1.7h-74.4c-53.2,0.8-112.2-14.1-126.3-17.8l-20.1-6.2c0,0-8.4-1.7-11.6-4     c-0.3-0.2-2.3-0.6-2.3-0.6l-0.2-3c0.1-0.3,7.6-1.2,7.6-1.2l19.5-4.5c1.1-0.2,2.1-0.3,3-0.5L8.5,8.5H18.1"/></defs><clipPath id="SVGID_2_"><use xmlns:xlink="http://www.w3.org/1999/xlink" style="overflow:visible;" xlink:href="#SVGID_105_"/></clipPath><g class="st1"><g><defs><rect id="SVGID_107_" x="-645.4" y="-204.9" width="1197.9" height="447.9"/></defs><clipPath id="SVGID_3_"><use xmlns:xlink="http://www.w3.org/1999/xlink" style="overflow:visible;" xlink:href="#SVGID_107_"/></clipPath><g class="st2"><defs><rect id="SVGID_109_" x="-55.8" y="-62.8" width="608.3" height="305.7"/></defs><clipPath id="SVGID_4_"><use xmlns:xlink="http://www.w3.org/1999/xlink" style="overflow:visible;" xlink:href="#SVGID_109_"/></clipPath><polyline points="26.2,66.9 38.8,53.1 30.7,50.3 26.2,66.9      " class="st3"/><polyline points="27,64.3 14.1,43.6 30.7,50.3 27,64.3      " class="st4"/><polyline points="35.3,29.5 7.5,42.7 30.7,50.3 35.3,29.5      " class="st5"/><polyline points="35.3,29.5 46.2,41.4 38.8,53.1 30.7,50.3 35.3,29.5      " class="st6"/><polyline points="35.3,29.5 7.5,42.7 2.6,3.7 35.3,29.5      " class="st3"/><polyline points="35.3,29.6 37.5,4.5 -1.4,0.7 35.3,29.6      " class="st4"/><polyline points="35.3,29.5 38.1,-1.7 51.3,34.1 35.3,29.5      " class="st5"/><polyline points="29.2,63.6 38.8,53.1 43.1,63 29.2,63.6      " class="st6"/><polyline points="31,70.4 63.6,75.1 43.1,63 31,70.4      " class="st6"/><polyline points="53.7,47.6 38.8,53.1 43.1,63 53.7,47.6      " class="st4"/><polyline points="53.7,47.6 38.8,53.1 46.2,41.4 53.7,47.6      " class="st5"/><polyline points="51.4,33.4 35.3,29.5 46.2,41.4 51.3,33.7      " class="st7"/><path d="M82.6,60.8c1.3-2,1.4-1.2,3.1-2.8c0.6-0.5,1.1-1,1.7-1.6L71.6,40.7l-13,19.6l19,0.6l2.4,0.3L82.6,60.8       c-0.2-0.2-0.2-0.1-0.2,0C82.3,60.9,82.4,61.1,82.6,60.8" class="st5"/><polyline points="53.7,47.6 65.8,49.9 58.7,60.3      " class="st6"/><polyline points="53.7,47.6 43.1,63 58.7,60.4 53.7,47.6      " class="st8"/><polyline points="53.7,47.6 46.2,41.4 58.5,26.3 61.7,38.1 53.7,47.6      " class="st6"/><polyline points="19.1,86.6 19.3,86.9 19.1,86.6      " class="st9"/><polyline points="43.1,63 58.7,60.3 63.6,75.1 43.1,63      " class="st10"/><polyline points="50.2,33.1 35.3,29.5 46.2,41.4 53.9,34.5 50.7,33.9      " class="st10"/></g></g><g><defs><path id="SVGID_111_" d="M8.5,8.3L8.5,8.3 M16,8.4L16,8.4"/></defs><clipPath id="SVGID_5_"><use xmlns:xlink="http://www.w3.org/1999/xlink" style="overflow:visible;" xlink:href="#SVGID_111_"/></clipPath><g class="st11"><defs><rect id="SVGID_113_" x="-645.4" y="-204.9" width="1197.9" height="447.9"/></defs><clipPath id="SVGID_6_"><use xmlns:xlink="http://www.w3.org/1999/xlink" style="overflow:visible;" xlink:href="#SVGID_113_"/></clipPath></g></g><g><defs><path id="SVGID_115_" d="M35.3,29.5"/></defs><clipPath id="SVGID_7_"><use xmlns:xlink="http://www.w3.org/1999/xlink" style="overflow:visible;" xlink:href="#SVGID_115_"/></clipPath><g class="st13"><defs><rect id="SVGID_117_" x="-645.4" y="-204.9" width="1197.9" height="447.9"/></defs><clipPath id="SVGID_8_"><use xmlns:xlink="http://www.w3.org/1999/xlink" style="overflow:visible;" xlink:href="#SVGID_117_"/></clipPath></g></g><g><defs><path id="SVGID_119_" d="M46.2,41.4l-1.3,2.1L46.2,41.4z"/></defs><clipPath id="SVGID_9_"><use xmlns:xlink="http://www.w3.org/1999/xlink" style="overflow:visible;" xlink:href="#SVGID_119_"/></clipPath><g class="st14"><defs><rect id="SVGID_121_" x="-645.4" y="-204.9" width="1197.9" height="447.9"/></defs><clipPath id="SVGID_10_"><use xmlns:xlink="http://www.w3.org/1999/xlink" style="overflow:visible;" xlink:href="#SVGID_121_"/></clipPath><g class="st15"><g><defs><rect id="SVGID_123_" x="44.8" y="41.2" width="9.3" height="6.8"/></defs><clipPath id="SVGID_11_"><use xmlns:xlink="http://www.w3.org/1999/xlink" style="overflow:visible;" xlink:href="#SVGID_123_"/></clipPath></g></g></g></g><g><defs><path id="SVGID_125_" d="M35.7,71.1L35.7,71.1l9.3,1.4v0L35.7,71.1z M43.1,63l0.7,0.4L43.1,63z M43.1,63l-14.1,0.8l2.4,6.4       L43.1,63z M43.5,62.9L43.1,63L43.5,62.9L43.5,62.9z M38.2,53.8l-2.5,2.7v0L38.2,53.8z M45,43.4l-6.2,9.8h0l-0.6,0.6v0l0.6-0.6       L45,43.4z"/></defs><use xmlns:xlink="http://www.w3.org/1999/xlink" style="overflow:visible;fill:#F8F5E8;" xlink:href="#SVGID_125_"/><clipPath id="SVGID_12_"><use xmlns:xlink="http://www.w3.org/1999/xlink" style="overflow:visible;" xlink:href="#SVGID_125_"/></clipPath><g class="st16"><defs><rect id="SVGID_127_" x="-645.4" y="-204.9" width="1197.9" height="447.9"/></defs><clipPath id="SVGID_13_"><use xmlns:xlink="http://www.w3.org/1999/xlink" style="overflow:visible;" xlink:href="#SVGID_127_"/></clipPath></g></g><g><defs><path id="SVGID_129_" d="M63.9,75.3C63.9,75.3,63.9,75.3,63.9,75.3l-0.2-0.1L63.9,75.3 M63.8,75.7l-0.2-0.6L63.8,75.7z        M49.5,73.1L49.5,73.1l14,2L49.5,73.1z M44.9,72.4L44.9,72.4l4.6,0.7l0,0L44.9,72.4z M58.7,60.3l4.9,14.8L44.9,64l18.7,11.1       l0.2,0.1l11.6-13.8l-0.6-0.6L58.7,60.3z"/></defs><clipPath id="SVGID_14_"><use xmlns:xlink="http://www.w3.org/1999/xlink" style="overflow:visible;" xlink:href="#SVGID_129_"/></clipPath><g class="st17"><defs><rect id="SVGID_131_" x="-645.4" y="-204.9" width="1197.9" height="447.9"/></defs><clipPath id="SVGID_15_"><use xmlns:xlink="http://www.w3.org/1999/xlink" style="overflow:visible;" xlink:href="#SVGID_131_"/></clipPath><g class="st18"><defs><rect id="SVGID_133_" x="44.8" y="59.3" width="36.5" height="25.7"/></defs><clipPath id="SVGID_16_"><use xmlns:xlink="http://www.w3.org/1999/xlink" style="overflow:visible;" xlink:href="#SVGID_133_"/></clipPath><g class="st19"><defs><rect id="SVGID_135_" x="44.8" y="59.3" width="36.6" height="25.7"/></defs><clipPath id="SVGID_17_"><use xmlns:xlink="http://www.w3.org/1999/xlink" style="overflow:visible;" xlink:href="#SVGID_135_"/></clipPath></g></g></g></g><g><defs><path id="SVGID_137_" d="M38.8,53.1l-1.2-0.4l0.6,1.1L38.8,53.1"/></defs><clipPath id="SVGID_18_"><use xmlns:xlink="http://www.w3.org/1999/xlink" style="overflow:visible;" xlink:href="#SVGID_137_"/></clipPath><g class="st20"><defs><rect id="SVGID_139_" x="-645.4" y="-204.9" width="1197.9" height="447.9"/></defs><clipPath id="SVGID_19_"><use xmlns:xlink="http://www.w3.org/1999/xlink" style="overflow:visible;" xlink:href="#SVGID_139_"/></clipPath><g class="st21"><g><defs><rect id="SVGID_141_" x="27.8" y="50.2" width="11.1" height="13.7"/></defs><clipPath id="SVGID_20_"><use xmlns:xlink="http://www.w3.org/1999/xlink" style="overflow:visible;" xlink:href="#SVGID_141_"/></clipPath></g></g></g></g><g><defs><polyline id="SVGID_143_" points="30.7,50.3 27.9,60.7 23.1,47.8 30.7,50.3      "/></defs><clipPath id="SVGID_21_"><use xmlns:xlink="http://www.w3.org/1999/xlink" style="overflow:visible;" xlink:href="#SVGID_143_"/></clipPath><g class="st22"><defs><rect id="SVGID_145_" x="-645.4" y="-204.9" width="1197.9" height="447.9"/></defs><clipPath id="SVGID_22_"><use xmlns:xlink="http://www.w3.org/1999/xlink" style="overflow:visible;" xlink:href="#SVGID_145_"/></clipPath></g></g><g><defs><path id="SVGID_147_" d="M63.6,75.1l0.2,0.6c0,0,0,0,0.1-0.1c0,0,0.1-0.1,0.1-0.2c0,0,0-0.1,0-0.2l-0.2-0.1l-0.1,0l0,0       L63.6,75.1z"/></defs><clipPath id="SVGID_23_"><use xmlns:xlink="http://www.w3.org/1999/xlink" style="overflow:visible;" xlink:href="#SVGID_147_"/></clipPath><g class="st24"><defs><rect id="SVGID_149_" x="-645.4" y="-204.9" width="1197.9" height="447.9"/></defs><clipPath id="SVGID_24_"><use xmlns:xlink="http://www.w3.org/1999/xlink" style="overflow:visible;" xlink:href="#SVGID_149_"/></clipPath><g class="st25"><defs><rect id="SVGID_151_" x="63.5" y="75.1" width="18.7" height="9.9"/></defs><clipPath id="SVGID_25_"><use xmlns:xlink="http://www.w3.org/1999/xlink" style="overflow:visible;" xlink:href="#SVGID_151_"/></clipPath><g class="st26"><defs><rect id="SVGID_153_" x="63.4" y="75.1" width="18.7" height="9.9"/></defs><clipPath id="SVGID_26_"><use xmlns:xlink="http://www.w3.org/1999/xlink" style="overflow:visible;" xlink:href="#SVGID_153_"/></clipPath></g></g></g></g><g><defs><path id="SVGID_155_" d="M37.6,52.7l-5.4-9.2l-1.5,6.8L37.6,52.7 M37.6,52.7l1.2,0.4h0l7.4-11.7L35.3,29.5l-3.1,13.8"/></defs><clipPath id="SVGID_27_"><use xmlns:xlink="http://www.w3.org/1999/xlink" style="overflow:visible;" xlink:href="#SVGID_155_"/></clipPath><g class="st27"><defs><rect id="SVGID_157_" x="-645.4" y="-204.9" width="1197.9" height="447.9"/></defs><clipPath id="SVGID_28_"><use xmlns:xlink="http://www.w3.org/1999/xlink" style="overflow:visible;" xlink:href="#SVGID_157_"/></clipPath></g></g><g><g><defs><rect id="SVGID_159_" x="-645.4" y="-204.9" width="1197.9" height="447.9"/></defs><clipPath id="SVGID_29_"><use xmlns:xlink="http://www.w3.org/1999/xlink" style="overflow:visible;" xlink:href="#SVGID_159_"/></clipPath></g></g><g><defs><path id="SVGID_161_" d="M43.1,63L43.1,63L43.1,63 M38.9,53.1l-9.8,10.7L43.1,63l-1.3-2.9L38.9,53.1z"/></defs><clipPath id="SVGID_30_"><use xmlns:xlink="http://www.w3.org/1999/xlink" style="overflow:visible;" xlink:href="#SVGID_161_"/></clipPath><g class="st28"><defs><rect id="SVGID_163_" x="-645.4" y="-204.9" width="1197.9" height="447.9"/></defs><clipPath id="SVGID_31_"><use xmlns:xlink="http://www.w3.org/1999/xlink" style="overflow:visible;" xlink:href="#SVGID_163_"/></clipPath><g class="st29"><defs><polygon id="SVGID_165_" points="43.2,63.7 29.1,63.8 29.1,53 43.2,53        "/></defs><clipPath id="SVGID_32_"><use xmlns:xlink="http://www.w3.org/1999/xlink" style="overflow:visible;" xlink:href="#SVGID_165_"/></clipPath><g class="st30"><defs><polygon id="SVGID_167_" points="43.3,63.7 29,63.8 29.1,53 43.3,53         "/></defs><clipPath id="SVGID_33_"><use xmlns:xlink="http://www.w3.org/1999/xlink" style="overflow:visible;" xlink:href="#SVGID_167_"/></clipPath></g></g></g></g><g><defs><path id="SVGID_169_" d="M63.6,75.1L43.9,63.4l4.9,9.6L63.6,75.1L63.6,75.1 M43.1,63l-11.6,7.1l-0.1,0.1l0.1,0.3l0.2,0       l17.7,2.8l-5.7-9.9L43.1,63z"/></defs><clipPath id="SVGID_34_"><use xmlns:xlink="http://www.w3.org/1999/xlink" style="overflow:visible;" xlink:href="#SVGID_169_"/></clipPath><g class="st31"><defs><rect id="SVGID_171_" x="-645.4" y="-204.9" width="1197.9" height="447.9"/></defs><clipPath id="SVGID_35_"><use xmlns:xlink="http://www.w3.org/1999/xlink" style="overflow:visible;" xlink:href="#SVGID_171_"/></clipPath><g class="st32"><defs><rect id="SVGID_173_" x="31.4" y="62.9" width="32.3" height="12.4"/></defs><clipPath id="SVGID_36_"><use xmlns:xlink="http://www.w3.org/1999/xlink" style="overflow:visible;" xlink:href="#SVGID_173_"/></clipPath><g class="st33"><defs><rect id="SVGID_175_" x="31.3" y="62.9" width="32.3" height="12.4"/></defs><clipPath id="SVGID_37_"><use xmlns:xlink="http://www.w3.org/1999/xlink" style="overflow:visible;" xlink:href="#SVGID_175_"/></clipPath></g></g></g></g><g><defs><path id="SVGID_177_" d="M49.4,37.1L49.4,37.1 M49.4,37.1"/></defs><clipPath id="SVGID_38_"><use xmlns:xlink="http://www.w3.org/1999/xlink" style="overflow:visible;" xlink:href="#SVGID_177_"/></clipPath><g class="st34"><defs><rect id="SVGID_179_" x="-645.4" y="-204.9" width="1197.9" height="447.9"/></defs><clipPath id="SVGID_39_"><use xmlns:xlink="http://www.w3.org/1999/xlink" style="overflow:visible;" xlink:href="#SVGID_179_"/></clipPath></g></g><g><g><defs><rect id="SVGID_181_" x="-645.4" y="-204.9" width="1197.9" height="447.9"/></defs><clipPath id="SVGID_40_"><use xmlns:xlink="http://www.w3.org/1999/xlink" style="overflow:visible;" xlink:href="#SVGID_181_"/></clipPath></g></g><g><g><defs><rect id="SVGID_183_" x="-645.4" y="-204.9" width="1197.9" height="447.9"/></defs><clipPath id="SVGID_41_"><use xmlns:xlink="http://www.w3.org/1999/xlink" style="overflow:visible;" xlink:href="#SVGID_183_"/></clipPath></g></g><g><defs><path id="SVGID_185_" d="M66.3,55L66.3,55"/></defs><clipPath id="SVGID_42_"><use xmlns:xlink="http://www.w3.org/1999/xlink" style="overflow:visible;" xlink:href="#SVGID_185_"/></clipPath><g class="st36"><defs><rect id="SVGID_187_" x="-645.4" y="-204.9" width="1197.9" height="447.9"/></defs><clipPath id="SVGID_43_"><use xmlns:xlink="http://www.w3.org/1999/xlink" style="overflow:visible;" xlink:href="#SVGID_187_"/></clipPath><g class="st37"><defs><rect id="SVGID_189_" x="66" y="55" width="13.9" height="9.2"/></defs><clipPath id="SVGID_44_"><use xmlns:xlink="http://www.w3.org/1999/xlink" style="overflow:visible;" xlink:href="#SVGID_189_"/></clipPath><g class="st38"><defs><rect id="SVGID_191_" x="66" y="55" width="13.9" height="9.3"/></defs><clipPath id="SVGID_45_"><use xmlns:xlink="http://www.w3.org/1999/xlink" style="overflow:visible;" xlink:href="#SVGID_191_"/></clipPath></g></g></g></g><g><defs><path id="SVGID_193_" d="M77.2,66.3C77.2,66.3,77.2,66.3,77.2,66.3C77.2,66.3,77.2,66.3,77.2,66.3 M76.5,65.7L76.5,65.7       L76.5,65.7 M76.5,65.7C76.5,65.7,76.5,65.7,76.5,65.7C76.5,65.7,76.5,65.7,76.5,65.7 M75.9,65.2C75.9,65.2,75.9,65.2,75.9,65.2       C75.9,65.2,75.9,65.2,75.9,65.2 M75.8,65.1L75.8,65.1"/></defs><clipPath id="SVGID_46_"><use xmlns:xlink="http://www.w3.org/1999/xlink" style="overflow:visible;" xlink:href="#SVGID_193_"/></clipPath><g class="st39"><defs><rect id="SVGID_195_" x="-645.4" y="-204.9" width="1197.9" height="447.9"/></defs><clipPath id="SVGID_47_"><use xmlns:xlink="http://www.w3.org/1999/xlink" style="overflow:visible;" xlink:href="#SVGID_195_"/></clipPath></g></g><g><defs><path id="SVGID_197_" d="M43.1,29"/></defs><clipPath id="SVGID_48_"><use xmlns:xlink="http://www.w3.org/1999/xlink" style="overflow:visible;" xlink:href="#SVGID_197_"/></clipPath><g class="st40"><defs><rect id="SVGID_199_" x="-645.4" y="-204.9" width="1197.9" height="447.9"/></defs><clipPath id="SVGID_49_"><use xmlns:xlink="http://www.w3.org/1999/xlink" style="overflow:visible;" xlink:href="#SVGID_199_"/></clipPath></g></g><g><g><defs><rect id="SVGID_201_" x="-645.4" y="-204.9" width="1197.9" height="447.9"/></defs><clipPath id="SVGID_50_"><use xmlns:xlink="http://www.w3.org/1999/xlink" style="overflow:visible;" xlink:href="#SVGID_201_"/></clipPath></g></g><g><g><defs><rect id="SVGID_203_" x="-645.4" y="-204.9" width="1197.9" height="447.9"/></defs><clipPath id="SVGID_51_"><use xmlns:xlink="http://www.w3.org/1999/xlink" style="overflow:visible;" xlink:href="#SVGID_203_"/></clipPath></g></g></g><polygon points="57.4,42.9 64.1,49.7 53.7,47.6   " class="st41"/></g></g><g><path d="M69,1v68H1V1H69 M70,0H0v70h70V0L70,0z" class="st42"/></g></svg>