<svg xmlns="http://www.w3.org/2000/svg" version="1.1" id="Layer_1" x="0px" y="0px" width="70" height="70" viewBox="0 0 70 70" xml:space="preserve" style="enable-background:new 0 0 70 70;"><style type="text/css">
	.st0{fill:#A08E63;}
	.st1{clip-path:url(#SVGID_2_);fill:#151620;}
	.st2{clip-path:url(#SVGID_2_);fill:#A08E63;}
	.st3{fill:#B3A481;}
</style><g><path d="M59.8,41.9c0.1-0.2,0.2-0.3,0.2-0.5c-0.1-0.1-0.2-0.2-0.5-0.3l0,0.1c-0.1,0.2-0.2,0.3-0.2,0.5   C59.4,41.8,59.6,41.9,59.8,41.9L59.8,41.9z M59.8,41.9" class="st0"/><path d="M52.7,42c0.1-0.2,0.2-0.3,0.2-0.5c-0.1-0.1-0.2-0.2-0.5-0.3l0,0.1c-0.1,0.2-0.2,0.3-0.2,0.5   C52.4,41.9,52.5,42,52.7,42L52.7,42z M52.7,42" class="st0"/><path d="M68.5,43.7c-0.3,0-0.6,0-1.2,0c0.4-0.4,0.8-0.8,1.3-0.8c0.3,0,0.6,0.2,0.6,0.5C69.2,43.6,68.9,43.7,68.5,43.7    M68.7,42.1c-0.4,0-0.8,0.3-1.1,0.6c0-0.1,0-0.2,0-0.3l0.1-1.6l0.1-0.1L67.1,41c-0.2,0.1-0.2,0.2-0.2,0.3l0.2,1.9l-0.3,0.4   c-0.2,0-0.5,0-0.7,0l0,0c-0.4,0-0.4-0.3-0.3-0.5l0.1-0.3l-0.3-0.1c-0.3,0.5-0.4,0.9-0.8,0.9h-0.3c-0.3,0-0.5-0.2-0.8-0.8l0-0.1   l-0.5,0.4c0.2,0.3,0.6,0.6,0.7,0.9c-0.4,0.8-1.5,1.2-2,1.2l0.5,0.5c0.1,0.1,0.2,0.1,0.3,0.1c0.4,0,1.3-0.8,1.5-1.7   c0.1,0.1,0.3,0.2,0.5,0.2H65c0.3,0,0.4-0.1,0.6-0.4c0.1,0.3,0.3,0.4,0.6,0.4h2.4c0.7,0,1.1-0.7,1.1-1.3   C69.6,42.5,69.1,42.1,68.7,42.1" class="st0"/><path d="M65.8,44.9C65.8,44.9,65.8,44.9,65.8,44.9L65.8,44.9c-0.1,0.2-0.2,0.4-0.2,0.5c0.2,0.1,0.3,0.2,0.5,0.3h0   l0-0.1c0.1-0.2,0.2-0.3,0.2-0.5C66.2,45.1,66.1,45,65.8,44.9L65.8,44.9z M65.8,44.9" class="st0"/><path d="M54.8,41.3c0,0.1,0.3,1.7,0.3,2.3c-0.1,0.1-0.2,0.1-0.4,0.1l-0.6,0c-0.3,0-0.5,0-0.6-0.3c0.1,0,0.1,0,0.2,0   h0.2l0.3-0.6l-0.5,0c-0.5,0-0.9-0.4-1.6-0.4c-0.1,0-0.2,0-0.4,0l-0.4,0.7l0.3-0.1c0.1,0,0.1,0,0.2,0c0.7,0,1,0.2,1.2,0.3   c-0.2,0.2-0.3,0.2-0.5,0.3c-0.3,0.2-0.7,0.1-1.3,0.1c-0.3,0-0.4,0-0.5-0.1c0-0.1,0-0.1,0-0.2l0.1-2.6l0.1-0.1L50.2,41   c-0.2,0.1-0.2,0.1-0.2,0.3c0,0.1,0.3,1.7,0.3,2.3c-0.1,0.1-0.2,0.1-0.4,0.1l-0.6,0c-0.4,0-0.4-0.2-0.2-0.8l-0.3-0.1   c-0.3,0.7-0.4,0.9-0.8,0.9h-0.8c-0.2,0-0.4-0.1-0.5-0.3h0.3l0.3-0.6l-0.5,0c-0.5,0-1.3-0.4-1.9-0.4c-0.1,0-0.2,0-0.2,0l-0.4,0.7   l0.3-0.1c0.1,0,0.1,0,0.2,0c0.3,0,0.6,0,0.8,0.1c-0.9,0.4-1.4,1.2-1.4,2.1c0,1.1,0.9,1.6,1.7,1.6c0.4,0,0.8-0.1,1-0.3   c0.1-0.1,0.2-0.3,0.4-0.6c-0.2,0.1-0.9,0.2-1.1,0.2c-0.8,0-1.5-0.3-1.5-1.2c0.1-0.7,1-1.4,1.9-1.5c0.3,0.9,0.5,1,0.9,1h0.8   c0.3,0,0.4-0.2,0.6-0.4c0.1,0.3,0.2,0.4,0.5,0.4h0.7c0.2,0,0.2,0,0.3-0.1c0.1-0.1,0.2-0.2,0.2-0.3c0.2,0.4,0.4,0.4,0.7,0.4h0.7   c0.3,0,0.5-0.1,0.8-0.4c0.2-0.2,0.4-0.4,0.5-0.5c0.2,0.6,0.3,0.9,0.7,0.9h0.9c0.2,0,0.2,0,0.3-0.1c0.2-0.2,0.4-0.5,0.4-0.9l0-2.6   l0.1-0.1L55,41C54.8,41.1,54.8,41.2,54.8,41.3" class="st0"/><path d="M45.5,45c0.2,0.1,0.3,0.2,0.5,0.3l0-0.1c0.1-0.2,0.2-0.3,0.2-0.5c-0.1-0.1-0.2-0.2-0.5-0.3l0,0.1   C45.6,44.7,45.6,44.9,45.5,45" class="st0"/><path d="M60.9,42l-0.5,0.3c-0.2,0.1-0.2,0.2-0.2,0.2c0,0.1,0.3,0.6,0.5,1.2c-0.2,0.3-0.7,0.5-1.2,0.5   c-0.5,0-0.9-0.2-0.9-0.6c0-0.2,0-0.5,0.2-0.8l-0.2-0.1c-0.2,0.4-0.3,0.8-0.3,1.1c0,0.7,0.4,1.2,1.3,1.2c1,0,1.5-0.6,1.6-1.3   c0-0.4-0.1-1-0.2-1.5L60.9,42z M60.9,42" class="st0"/><path d="M48.8,45c-0.1,0.2-0.2,0.3-0.2,0.5c0.2,0.1,0.3,0.2,0.5,0.3l0-0.1c0.1-0.2,0.2-0.3,0.2-0.5   C49.3,45.1,49.1,45,48.8,45L48.8,45z M48.8,45" class="st0"/><path d="M65,44.8C65,44.8,65,44.8,65,44.8L65,44.8c-0.1,0.2-0.2,0.4-0.2,0.5c0.2,0.1,0.3,0.2,0.5,0.3h0l0-0.1   c0.1-0.2,0.2-0.3,0.2-0.5C65.5,45,65.3,44.9,65,44.8L65,44.8z M65,44.8" class="st0"/><path d="M56.1,41.4l0.3,2.9l0,0.2c0.3-0.3,0.4-0.4,0.4-0.7l0.1-2.9l0.1-0.1L56.3,41C56.1,41.1,56.1,41.2,56.1,41.4" class="st0"/><path d="M62,44.5c0.3-0.3,0.4-0.4,0.4-0.7l0.1-2.9l0.1-0.1L61.9,41c-0.2,0.1-0.2,0.2-0.2,0.3l0.3,2.9L62,44.5z    M62,44.5" class="st0"/><path d="M48,44.9c-0.1,0.2-0.2,0.3-0.2,0.5c0.2,0.1,0.3,0.2,0.5,0.3l0-0.1c0.1-0.2,0.2-0.3,0.2-0.5   C48.5,45,48.3,44.9,48,44.9L48,44.9z M48,44.9" class="st0"/><g><defs><rect id="SVGID_1_" x="0.2" y="14.8" width="69.7" height="40.5"/></defs><clipPath id="SVGID_2_"><use xmlns:xlink="http://www.w3.org/1999/xlink" style="overflow:visible;" xlink:href="#SVGID_1_"/></clipPath><path d="M49.5,48.7v4.8h1.3v-2h1.4c0.4,0,0.4-0.1,0.5-0.7l-0.2,0.1l-1.7,0v-1.1c0-0.2,0-0.3-0.1-0.4l-0.1-0.2h3    l0.2,0.1v-0.8h-4.3L49.5,48.7z M62.3,48.7v4.8h1.3v-5.1h-1.5L62.3,48.7z M57.6,51.5l0.8-1.7l0.8,1.7H57.6z M59.4,48.7    c-0.3-0.5-0.5-0.6-1.6-0.1l0.1,0.1l0.1,0.2l-2.1,4.6h0.8l0.6-1.3h2.2l0.4,0.9c0.3,0.6,0.5,0.7,1.7,0.1l-0.2-0.1L59.4,48.7z M67,51    h-0.8v-1.2c0-0.2,0-0.3-0.1-0.4l-0.2-0.2h0.9c1,0,1.4,0.3,1.4,0.9C68.2,50.7,67.9,51,67,51 M69.7,53.1c-0.4-0.6-0.8-1.2-1.1-1.6    c0.7-0.3,1.1-0.7,1.1-1.4c0-1.1-0.8-1.7-2.2-1.7h-2.7l0.1,0.2v4.8h1.3v-1.8h1.1c0.3,0.5,0.6,1.1,0.9,1.5c0.3,0.6,0.6,0.6,1.7,0    L69.7,53.1z M35.8,51.3V52c0,0.2,0,0.3,0.1,0.4l0.1,0.1c-0.3,0.1-0.7,0.2-1.1,0.2c-1.1,0-2-0.8-2-2.2c0-1,0.4-1.5,1.5-1.5    c0.9,0,1.7,0.2,2.6,0.5l0-0.9c-0.4-0.1-1.6-0.3-2.2-0.3c-2,0-3.4,0.7-3.4,2.6c0,1.8,1.5,2.6,3.3,2.6c1,0,2.1-0.4,2.5-0.5v-2    l-1.5,0L35.8,51.3z M45.4,52.8l0.1-0.2c0.1-0.1,0.1-0.2,0.1-0.4v-3.7h-1.5l0.1,0.2v4.8h4.4v-0.8l-0.2,0.1H45.4z M42.5,48.7v2.8    c0,1-0.4,1.4-1.5,1.4c-1.1,0-1.5-0.5-1.5-1.5v-3h-1.5l0.1,0.2v3c0,1.3,1,1.9,2.6,1.9c1.9,0,2.4-0.9,2.4-2.1l0-3h-0.8L42.5,48.7z     M42.5,48.7" class="st1"/><path d="M35.1,14.8c0,0-0.1,0.7-0.1,0.7c-0.1,0.1-1,1.2-2.4,2.5c-1.3,1.2-8.3,6.8-9.3,7.8c-3.3,3.1-4.9,7-4.9,7    c0,0,0.3-0.4,1.9-1.6c1.6-1.1,5.3-3.2,9.3-5.6c3.1-1.8,6.3-4.8,6.3-8.1C35.9,16.7,35.7,15.7,35.1,14.8 M31.4,25.3    c-2.8,1.8-6.9,4.1-9.5,5.6c-4.4,2.4-5.4,5-5.8,6.7c1-1.2,7.1-3.9,11.6-5.8c5.2-2.1,8-4.5,8.1-8.2c0-0.8-0.1-1.6-0.4-2.5    C35.3,22.4,33.7,23.9,31.4,25.3 M19.9,36c-2.4,1.3-3.5,1.8-3.8,2.5c0,0-0.7,1.8-1,2.3c-0.3,0.5-0.8,0.8-1.2,0.8    c-0.5-0.1-1-0.1-1.5-0.2c-1-0.1-2.3,0.1-2.9,0.4c-0.4,0.2-1.1,1.1-1.1,1.1c0.4,0.3,0.9,0,0.9,0s-0.2-0.2-0.2-0.3    c0,0,0.1-0.1,0.2-0.2c0.1,0.3,0.3,0.5,0.6,0.5c0.3,0,0.6-0.3,0.7-0.6c0-0.2,0-0.4-0.1-0.5c0.4,0,0.7,0.2,0.7,0.3    c0,0.2-0.5,0.9-1.1,1c0.1,0.3,0.8,0.4,0.8,0.6c0,0.1-0.1,0.2-0.2,0.2c-0.1,0.1,0.5,0.3,0.9,0.3c1.4,0.1,1.8-0.5,2.3-1.1    c0.1-0.2,0.3-0.2,0.5-0.2c0.4,0,2.9,1.5,5.5,1.6c2.5,0,4.3-1.2,4.7-2.6c-0.3,0.1-1.2,0.4-2.2,0.4c-2.5,0-3.5-1.3-3.5-1.3    s1.4,0.5,3,0.6c4.1,0.1,4.8-3.2,5.1-4.3c-0.5,0.4-2.5,1.6-6.2,1.5c-1.2,0-1.8-0.2-2.5-0.5c1.3,0,2.8-0.1,4-0.3    c4.4-0.9,7.3-3,7.9-6.2C27,33.2,22.5,34.7,19.9,36 M7.4,44.2c0,0.4,0.4,0.5,0.5,0.5l0.1-0.4c0,0,0.4-0.1,0.8-0.2    C9,44,9.2,44.5,9.2,44.5s0.8-0.1,1-0.5c0-0.1-1.3-0.1-1.5,0c-0.2,0-0.4-0.2-0.8-0.5C7.9,43.4,7.4,43.6,7.4,44.2 M9,44.9    C8.8,45,8.7,45,8.6,45.1c-0.1,0-0.1,0.1-0.2,0.1c0,0,0.6,0.3,1.2-0.3c0,0,1.2,0.6,2,0.8c-0.2,0.6-1.9,1.9-2.9,2.9    c-1.7,1.6-3.5,6.1-5.2,6.6c0.3,0.1,0.5,0.1,0.7,0.1c2.2,0,3.3-2,3.6-2.6C7.3,54.2,6.7,55,6.4,55c0.4,0.1,0.8,0.2,1.1,0.2    c1.5,0,2.5-0.9,2.5-0.9l-1.3-0.7c0,0,1.6,0.7,3,0.7c1.4,0,1.7-0.6,1.7-0.6l-1.6-0.9c0.3,0.2,1.2,0.5,1.9,0.5c2,0,3.1-1.9,3.2-3    c-0.1,0.2-0.7,1.1-1.6,1c0.1-0.1,0.1-0.3,0-0.5c0,0,0,0,0,0c-0.1-0.1-1.1-1.1-1.9-1.7c-0.1,0.2-0.1,0.3-0.2,0.6    c-0.1,0.5-0.6,0.7-0.9,0.7c-0.5,0-0.8-0.4-0.8-0.6c0.2,0.2,0.4,0.3,0.6,0.3c0.1-0.2,0.2-0.2,0.4-0.3c0.1,0,0.2-0.1,0.3-0.2    c0,0,0.3-0.3,0.3-0.7c0-0.2-0.1-0.3-0.2-0.4c-0.2-0.1-0.4-0.1-0.7-0.1c-0.4,0-0.6,0-0.7-0.1c-0.1-0.1-0.1-0.1-0.2-0.1    c-0.2,0-0.3,0.1-0.3,0.1c0-0.3,0.2-0.5,0.5-0.5c0,0,0.1,0,0.1,0c0.1,0,1.5,0.4,1.8,0.5c0.2,0.1,1.7,1.3,1.7,1.3    c0.3-0.2,0.5-1,0.5-1.5c0.1-0.1,0.3,0,0.6,0.2c0.3,0.2,1.2,1.1,1.4,1.2c-0.2,1.5,0.7,4.4,2.2,4.4c0.2,0,0.4-0.1,0.4-0.1    c-0.1-0.1-0.2-0.2-0.3-0.4l-0.2-1c0,0,0.3,0.4,1.5,1.7c0.6,0.7,1.2,0.9,1.6,0.9c0.4,0,0.6-0.2,0.7-0.2c-0.2,0-0.4-0.2-0.7-0.5    L21.6,53c1.7,1.6,3,1.9,3.7,2c0.6,0,0.9-0.2,0.9-0.2l-3.7-3.3l4.4,2.4c0.5-1.5-0.6-2.5-1.2-2.8c-0.6-0.4-2.9-1.6-2.9-1.6l2.3,0.5    c1,0.2,1.7,0.6,1.6,0.8c0.1-0.2,0.1-0.3,0.1-0.4h0c0-2.6-4-2.4-4-2.4l0.9-0.2c1.1-0.2,1.7-0.2,1.8,0.1c0-0.2,0-0.3,0-0.4h0    c-0.3-1-0.9-1.3-2.9-1.8l-2.7-0.6c0.9,0.9,1.2,3.3,0.2,4.5c0-0.3-0.1-0.5-0.3-0.6c-0.2,0.6-0.5,1.4-1.4,1.3c0,0,0.1-0.2-0.2-0.4    c-0.5-0.5-2.1-1.9-2.7-2.4c0,0.2,0,0.3-0.1,0.5c-0.2,0.7-0.7,0.9-1,0.9c-0.4,0-0.8-0.4-0.9-0.5c0.3,0.2,0.8,0.3,0.8,0.3    c0-0.1,0.1-0.3,0.2-0.3c0.1-0.1,0.4-0.2,0.4-0.5c0.1-0.3-0.2-0.5-0.4-0.5c-0.4,0.1-1,0.2-1.1,0.2c-0.1,0-0.2,0-0.3-0.1    c-0.1,0-0.1-0.1-0.2-0.1c-0.3,0-0.4,0.3-0.4,0.3c-0.1-0.4,0.2-0.7,0.5-0.8c0.1,0,1.6-0.1,2.1-0.1c0.3,0,0.5,0,0.7,0.1    c0.4,0.2,1.2,0.8,1.4,1c0.3-0.7,0.2-2.1-0.1-2.4c-2.5-0.5-5.4-0.1-7.1-1C9.9,44.5,9.2,44.8,9,44.9 M13.5,45.8    c0.1,0,1.2,0.4,1.9,0.7c-0.3,0-0.5,0-0.8,0c-0.1,0-0.3,0-0.4,0c-0.2,0-0.4,0-0.4,0c-0.3,0-0.2-0.2-0.5-0.2c-0.3,0-0.4,0.2-0.4,0.2    C12.8,46,13.2,45.7,13.5,45.8 M11.3,48.8c0.1,0,0.6,0,0.9,0c0.2,0,0.7,0,0.7,0.4c0,0.1,0,0.1,0,0.2c-0.1-0.1-0.2-0.2-0.3-0.2    c-0.1,0-0.8,0.2-1,0.2c-0.2,0-0.2-0.1-0.3-0.1c-0.3,0-0.4,0.2-0.4,0.2C10.8,49.1,11,48.8,11.3,48.8 M0.7,53.7    c-0.1,0-0.4,0-0.5-0.1c0,0,0.2,1.4,1.9,1.4c1,0,2-0.7,2.7-1.8C5.5,52,6.9,50,7,49.8C6.2,50.7,2.5,53.1,0.7,53.7 M26.9,53.9    L26.9,53.9L26.9,53.9" class="st2"/></g><path d="M4.2,55c1.2-0.4,2.1-1.3,3.5-3.8c0.7-1.2,1.3-2.3,1.6-3c-0.2,0.2-0.3,0.3-0.5,0.5c-0.7,0.7-1.4,1.9-2.2,3   C5.8,53,5,54.3,4.2,55L4.2,55z M5.2,51.4c-1.5,1-3.4,2.1-4.5,2.4l0,0c-0.1,0-0.2,0-0.2,0C0.6,54,1,54.1,1.3,54.1   c0.7,0,1.4-0.3,2-0.8C3.7,52.9,4.5,52.2,5.2,51.4L5.2,51.4z M5.2,51.4" class="st3"/><path d="M19,31.9c1-1.2,3.8-4,9.2-7.6c4.6-3.1,7.2-5.8,7.2-8c0-0.3-0.1-0.7-0.1-1l0,0.1c0,0.2-0.1,0.2-0.1,0.3l0,0   c-0.4,0.5-1.2,1.4-2.4,2.5c-0.6,0.6-2.5,2.1-4.5,3.8c-2.1,1.7-4.2,3.5-4.8,4C21.1,28,19.6,30.6,19,31.9L19,31.9z M35.3,21.9   c-0.6,1.4-2.6,2.8-3.8,3.6c-2.8,1.8-6.9,4.2-9.6,5.6c-3.8,2.1-5.1,4.3-5.5,6c0.7-1,3.6-3.7,8.5-5.8c5.1-2.2,10.3-5.3,10.5-8.9   C35.4,22,35.4,22,35.3,21.9L35.3,21.9z M16.4,38.3c0.2,0,0.8-0.2,1.1-0.2c0.8-0.2,2.8-0.6,5-1.4c4.9-1.7,5.8-2.8,7.3-4.5l0,0   c-1.2,0.5-2.5,1-3.8,1.5c-2.2,0.8-4.4,1.7-5.9,2.4l0,0C17.9,37.2,16.9,37.8,16.4,38.3L16.4,38.3z M16.4,38.4c0,0.1-0.1,0.1-0.1,0.2   c0,0.1-0.7,1.8-1,2.3c-0.2,0.4-0.6,0.7-0.9,0.8l-0.1,0c0.4,0.1,1.2,0.3,1.6-0.5c0.6-1.2,0.6-2,0.6-2.5   C16.5,38.5,16.4,38.4,16.4,38.4L16.4,38.4z M16.4,38.4" class="st3"/><path d="M19.7,53.5c-0.3-0.1-0.7-0.4-1.2-0.9c-0.1-0.2-0.4-0.7-0.4-0.7l0.1,0.2c0.2,0.6,0.4,1.1,0.8,1.4   c0.3,0.3,0.6,0.5,0.9,0.5c0,0,0,0,0.1,0c0-0.1-0.1-0.2-0.1-0.3L19.7,53.5L19.7,53.5z M20.7,53.6c0.2,0.2,0.3,0.4,0.6,0.6   c0.6,0.6,1.1,0.8,1.4,0.8c0.1,0,0.2,0,0.2,0c-0.1-0.1-0.2-0.2-0.4-0.4l-0.1-0.1h0c-0.4,0-0.8-0.2-1.2-0.5   C21,53.8,20.9,53.7,20.7,53.6L20.7,53.6z M22.7,53.7c1.2,0.9,2,1.1,2.6,1.1c0.3,0,0.5,0,0.6-0.1l-0.6-0.5l0,0c-0.2,0-0.4,0-0.6,0   C24.1,54.2,23.5,54,22.7,53.7L22.7,53.7z M26.3,53.3l0.5,0.3c0.3-1.4-0.9-2.2-1.2-2.4c-0.3-0.2-1.1-0.6-1.8-1l0,0   c0.5,0.4,1.2,0.9,1.4,1.1C25.6,51.7,26.2,52.4,26.3,53.3L26.3,53.3z M26,50c0.3,0.1,0.5,0.2,0.7,0.3v-0.1c0-0.5-0.2-0.9-0.5-1.2   c-0.7-0.6-1.8-0.8-2.5-0.9l0,0C24.4,48.4,25.6,48.9,26,50L26,50z M24.5,47.4c0.3,0,0.6,0,0.8,0c0,0,0,0,0,0l0,0   c-0.2-0.8-0.7-1.1-2.3-1.5H23C23.6,46.2,24.3,46.8,24.5,47.4L24.5,47.4z M24.5,47.4" class="st3"/></g></svg>