<svg xmlns="http://www.w3.org/2000/svg" version="1.1" id="Layer_1" x="0px" y="0px" width="70px" height="70px" viewBox="0 0 70 70" enable-background="new 0 0 70 70" xml:space="preserve"><metadata/><rect width="70" fill="none" height="70"/><polygon points="48.2,30.3 48.2,25.9 23,25.9 23,30.3 " fill="#159CD8"/><path fill="#159CD8" d="M22.8,17.8c-1.9,0-3.4,1.5-3.4,3.4c0,1.9,1.5,3.4,3.4,3.4c1.9,0,3.4-1.5,3.4-3.4   C26.2,19.3,24.6,17.8,22.8,17.8L22.8,17.8z"/><path fill="#159CD8" d="M31.2,17.7c-1.9,0-3.4,1.5-3.4,3.4s1.5,3.4,3.4,3.4c1.9,0,3.4-1.5,3.4-3.4C34.5,19.2,33,17.7,31.2,17.7   L31.2,17.7z"/><path fill="#159CD8" d="M39.4,17.7c-1.9,0-3.4,1.5-3.4,3.4s1.5,3.4,3.4,3.4c1.899,0,3.399-1.5,3.399-3.4S41.2,17.7,39.4,17.7   L39.4,17.7z"/><path fill="#159CD8" d="M47.9,17.7c-1.9,0-3.4,1.5-3.4,3.4s1.5,3.4,3.4,3.4c1.899,0,3.399-1.5,3.399-3.4S49.8,17.7,47.9,17.7   L47.9,17.7z"/><polygon points="36.3,17.8 36.3,11.4 34.4,11.4 34.4,17.8 " fill="#159CD8"/><polygon points="8.2,34.3 2,34.3 2,50.8 8.2,50.8 8.2,44.2 14.7,50.8 22.3,50.8 13.7,41.4 20.8,34.3 14.2,34.3    8.2,40.4 " fill="#159CD8"/><polygon points="22.8,34.3 28.8,34.3 28.8,46.7 39.4,46.7 39.4,50.8 22.8,50.8 " fill="#159CD8"/><polygon points="55.2,43.7 58.4,34.3 68.5,34.3 68.5,50.8 62.5,50.8 62.5,38.4 58.2,50.8 52.1,50.8 47.9,38.4    47.9,50.8 41.8,50.8 41.8,34.3 52.1,34.3 " fill="#159CD8"/><polygon points="38.7,15.6 38.7,13.7 32.3,13.7 32.3,15.6 " fill="#159CD8"/></svg>