<svg xmlns="http://www.w3.org/2000/svg" version="1.1" id="Ebene_1" x="0px" y="0px" width="70" height="70" viewBox="0 0 70 70" xml:space="preserve" style="enable-background:new 0 0 70 70;"><style type="text/css">
	.st0{fill:#05164D;}
</style><path d="M35,0C15.6,0,0,15.6,0,35s15.6,35,35,35c19.4,0,35-15.6,35-35S54.4,0,35,0 M35,67.9C16.8,67.9,2.1,53.2,2.1,35  S16.8,2.1,35,2.1S67.9,16.8,67.9,35S53.2,67.9,35,67.9 M48.6,28c-0.3,0-0.5,0-0.6,0c-0.1,0.3-0.4,0.6-0.7,1.1c5,0,9.6,0.4,14.6,1.3  l-1.4,1.4c-4.5-0.8-8.3-1.1-13.1-1.1c-0.7,0-0.8,0-1,0c-0.2,0.3-0.5,0.7-0.9,1.2c0.4,0,1.3,0,2.4,0c4,0,7.6,0.3,11.7,0.9L58,34.2  c-3.1-0.5-6.8-0.7-10.1-0.7c-1.2,0-2.5,0-3.8,0.1c-0.3,0.3-1,1.1-1.2,1.3c1.6-0.2,3.4-0.2,5.5-0.2c3,0,5.8,0.2,8.5,0.6l-1.4,1.4  c-1.9-0.2-4.3-0.4-6.3-0.4c-5.3,0-9.5,1.2-13.9,3.8c4.1,4.4,10.9,7.2,17.5,7.2h0.6l-2.3,2.2c-9.5-1.8-19.4-5.9-27.9-11.6  C15.2,32.4,12.3,30.8,6,28l0-1.6l4.3,1.8l1.5-1.2l14,6.4l-0.9,0.7l-7.2-3.1l-0.7,0.6l3.7,2.1c3.1,1.7,5.5,2.5,7.7,2.5  c4.8,0,9.2-3.4,12-9.5c2.1-0.3,4.4-0.4,7.1-0.4c5.5,0,10.9,0.5,17,1.7l-1.5,1.4C59.1,28.7,52.7,28,48.6,28" class="st0"/></svg>