<svg xmlns="http://www.w3.org/2000/svg" version="1.1" id="Airplane" x="0px" y="0px" width="70" height="70" viewBox="0 362 70 70" xml:space="preserve"><metadata id="metadata253"/><defs id="defs251"/><style id="style238" type="text/css">

	.st0{fill:#72869E;}

	.st1{fill:#13375D;}

</style><g id="g242" transform="translate(270)"><path id="path240" d="m -227.6,427.4 4.9,-2.5 V 414.5 L -239,419 v -3.1 c 0,-0.3 0.1,-0.5 0.4,-0.6 l 16,-8.3 c 0,-5.9 -0.1,-10.1 0,-12.4 0,-1.3 0.6,-2.8 1.8,-4.5 0.3,-0.4 0.7,-0.6 1.2,-0.6 0.5,0 0.9,0.2 1.2,0.6 1.2,1.6 1.8,3.1 1.8,4.5 V 407 l 16,8.3 c 0.3,0.1 0.4,0.3 0.4,0.6 v 3.1 l -16.3,-4.5 V 425 l 5,2.4 -0.1,3 -7.9,-1.5 -7.9,1.5 z" style="fill:#72869e" class="st0"/></g><g id="g246" transform="translate(270)"><path id="path244" d="m -255.9,408 5.9,-3 v -12.5 l -19.6,5.4 v -3.7 c 0,-0.3 0.2,-0.6 0.5,-0.7 l 19.2,-9.9 c 0,-7.1 -0.1,-12.1 -0.1,-14.9 0,-1.6 0.8,-3.4 2.2,-5.4 0.4,-0.5 0.8,-0.8 1.4,-0.8 0.6,0 1.1,0.3 1.4,0.8 1.4,2 2.2,3.8 2.2,5.4 l -0.1,14.9 19.2,9.9 c 0.3,0.2 0.5,0.4 0.5,0.7 v 3.7 l -19.6,-5.4 -0.1,12.6 6,2.9 -0.1,3.6 -9.5,-1.8 -9.5,1.8 z" style="fill:#13375d" class="st1"/></g></svg>