<svg xmlns="http://www.w3.org/2000/svg" version="1.1" id="Layer_1" x="0px" y="0px" width="70px" height="70px" viewBox="0 0 70 70" enable-background="new 0 0 70 70" xml:space="preserve"><metadata/><switch><g><rect width="70" fill="none" height="70"/><path id="path124-0" fill="#AAABAD" d="M1.6,25.6C1.6,41,17,43,17,64.3l0,0c0,0,15.4,0.5,15.4-10.2l0,0C32.4,43,0.2,24.2,6.8,12.6     l0,0C1.7,17.8,1.6,25.6,1.6,25.6"/><path id="path144-1" fill="#AAABAD" d="M7.6,11.8C0.7,23.9,33.2,43.2,33.2,53.5l0,0c0,3.5-0.4,6-2.9,7.5l0,0c0,0,12.3-5.6,14-13.2     l0,0V44C41.9,31.9,19.4,22.5,19.2,13l0,0c-0.1-5.3,5-6.8,5-6.8l0,0c-0.8-0.1-1.5-0.1-2.2-0.1l0,0C11.2,6.1,7.6,11.8,7.6,11.8"/><path id="path170-4" fill="#B29657" d="M51.6,9.6c-8.1,0-22.899-3.2-25.7-3.1l0,0c-5.5,0.1-8.5,6.8-3.8,12l0,0     c0,0,2.4-2.7,4.6-3.4l0,0c3.2-1.1,6.8-0.8,11.399-0.5l0,0c4.7,0.3,10.5,0.6,17.601-0.7l0,0c8.7-1.5,11.6-4.9,13.1-8.3l0,0     C65.3,8.4,59.7,9.6,51.6,9.6"/><path id="path196-5" fill="#B29657" d="M56.1,14.4c-7.199,1.3-12.899,1-17.6,0.7l0,0c-4.6-0.3-8.2-0.5-11.4,0.6l0,0     c-2.3,0.8-4.6,3.2-4.6,3.2l0,0c0,0,5.8,6,9.2,8.4l0,0c2.2-7.1,16.3-4.3,22-6.4l0,0C60.9,18.3,64,14,65.1,11.1l0,0l0,0     C63.2,12.4,60.3,13.6,56.1,14.4"/><path id="path222-6" fill="#B29657" d="M54.1,21.4c-6.199,2-14.8,0.5-19.5,3.2l0,0c-2,1.1-2.5,3.1-2.5,3.1l0,0     c0,0,4.4,3.5,8.5,8.2l0,0c0-1.101,0.4-2.8,1.801-4.3l0,0c2.5-2.5,16.199-4.3,18.8-14.4l0,0C59.3,19.5,55.2,21,54.1,21.4"/></g></switch></svg>