<svg xmlns="http://www.w3.org/2000/svg" version="1.1" id="Layer_1" x="0px" y="0px" width="70" height="70" viewBox="0 0 70 70" xml:space="preserve" style="enable-background:new 0 0 70 70;"><style type="text/css">
	.st0{fill:#B18446;}
</style><g><g><g><path d="M58.1,36.2c0.2-1.1,0.2-2.3,0.3-3.4l-0.1,0l-0.1,0.5c-0.2,2-2.2,2.6-3.6,3.6c0.6-0.1,1.2-0.3,1.8-0.5     c0.7-0.3,1.3-0.9,1.6-1.5C58.1,35.3,57.9,35.8,58.1,36.2 M57.7,40.6c0.2,0.4,0.4,0.8,0.8,0.9c0.4,0.1,1-0.2,1.4-1.6     c0.2,0.3,0.3,0.6,0.6,0.8c1.2,1.2,2.2-0.7,3.3-0.9c0.1-0.3,0.2-0.6,0.2-0.9c-0.4,0-0.7,0.3-1.2,0.2c-0.1,0-0.3-0.1-0.3-0.3     c0.2-1.8-0.1-3.7-1.4-5c-0.6,1.6,0.2,3.2,0.3,4.8c0.4-1.1,0.1-2.3-0.1-3.4c0.9,1.2,1.1,2.6,0.9,4.2c-0.1,0.8-0.9,0.8-1.2,0.6     c-1.3-1-1.1-3.1-1.8-4.4c-0.3,0.6-0.1,1.3,0.1,1.9c0.2,0.7,0.7,2.2-0.1,2.9c-0.5,0.5-1.1,0.1-1.3-0.4c-0.5-1.2-0.6-2.4-0.8-3.7     l-0.1-0.1c-0.1,0.3-0.2,0.6-0.1,0.9c0.1,0.6,0.3,2.1,0.6,3.1c-0.4,0.9-0.9,1-1.2,1c-0.6-0.3-0.4-1-0.4-1.5     c-1.4,0.8-2.8,1.6-4,1.9c-2.7,0.8-6.1,1.4-8.8,0.2c-1-0.5-1.8-1.4-1.8-2.6c0-0.1-0.1-0.2-0.3-0.2c-1.1,0.4-1.3,1.6-1.7,2.6     c-0.4,1-1.3,0.3-1.4-0.1c-0.1-1.5,1.3-2.4,2.2-3.4c0.6-0.7,0.9-1.5,1-2.5c-0.5,0.3-1.1,0.4-1.7,0.6c-0.3,0.2-0.3,0.7-0.4,1     l1.5-0.5l0,0c-0.5,1.4-2.4,1.9-2.8,3.4c-0.2,0.8-0.2,2,0.4,2.6c0.3,0.2,0.7,0.4,1.1,0.2c0.7-0.7,0.6-1.7,1.2-2.5     c0.2-0.2,0.5-0.5,0.7-0.5l0.1,0.7c0.4,1.4,1.9,2.2,3.2,2.5c3.3,0.5,6.7-0.2,9.5-1.6c0.6-0.3,1.1-0.7,1.7-0.9     c0,0.8,0.3,1.3,0.8,1.4C56.7,42.2,57.3,41.9,57.7,40.6 M9.3,52.1c-0.1,0.1-0.1,0.1-0.2,0.2c-0.7,0.5-2.4,0.2-2.9-0.4     c-0.3-0.4-0.3-0.9-0.3-1.4c0-0.4,0-0.9,0.3-1.2c0.5-0.8,2.5-0.4,3.1,0.3C9.7,50.2,9.5,51.7,9.3,52.1 M1.5,50.5     c-0.1,0-0.1-0.1-0.1-0.1v-1.6C2,48.6,2.9,48.5,3.1,49c0.2,0.4,0.2,1.1,0,1.3C2.7,50.6,1.6,50.5,1.5,50.5 M8.8,48.2     c-1.2-0.2-2.5,0-3.3,0.7c-0.6,0.6-0.9,2.5,0,3.5h0l0,0l0.1,0.1c0,0,0.1,0.1,0,0.1c-0.2,0.5-0.8,0.5-1,0.3c-0.8-0.6-1-1.7-1.7-2.2     c0.3-0.2,0.7-0.5,1-0.8c0.2-0.4,0.2-1.1-0.2-1.4c-0.3-0.3-0.9-0.4-1.5-0.4H0.4c-0.4,0,0.1,0.1,0.1,0.4c0.1,1.6,0,4.6,0,4.6h1.2     c0-0.1-0.3-0.1-0.4-0.3c0,0,0-1.7,0-1.8C1.4,51,1.5,51,1.5,51c0.3,0,0.6-0.1,0.8,0.2c0.2,0.3,1,2,2,2.3c0.6,0.2,1.3-0.1,1.7-0.5     l0.1-0.1c0.9,0.4,2.1,0.4,3-0.1c1.3-0.7,1.4-2.3,1-3.5C9.9,48.7,9.4,48.4,8.8,48.2 M13.1,52.9l0-1.5c0.8-1,1.6-2,1.9-3.2h-0.9     c-0.4,0,0.1,0.1,0.1,0.4c-0.1,0.7-0.8,1.6-1.4,2.3l-1.6-2.8H10l0,0c0,0.1,0.2,0.1,0.5,0.4c0.6,0.9,1.2,1.9,1.8,2.9     c0,0.5,0,1.8,0,1.8h1.2C13.4,53,13.1,53.1,13.1,52.9 M45.2,50.9c0.4-1,0.6-1.8,0.6-1.8c0.3,0.5,0.7,1.8,0.7,1.8H45.2z M48.4,52.6     c-0.9-1.4-1.5-3-2.1-4.5h-1.2l0,0c0,0,0.5,0.2,0.3,0.8c-0.2,0.9-0.6,1.9-1.7,4.1l-0.1,0.2c0,0,0,0,0.1,0h1l0,0     c0-0.1-0.4-0.1-0.4-0.4c0.1-0.4,0.4-1,0.6-1.5h1.6c0.3,0.6,0.6,1.2,1,1.8c0,0,0.1,0.1,0.1,0.1c0,0,0.2,0,0.2,0c0.2,0,1,0,1,0l0,0     C49,53.1,48.7,53.1,48.4,52.6 M42.5,52.3c-0.6,0.5-2,0.3-2.9,0.2v-3.7c0.3-0.1,0.6-0.1,1.2-0.1c0.7,0,1.5,0.2,1.9,0.8     C43.1,50.1,43.2,51.7,42.5,52.3 M35,50.5c-0.1,0-0.1-0.1-0.1-0.1v-1.6c0.6-0.2,1.5-0.2,1.7,0.2c0.2,0.4,0.2,1.1,0,1.3     C36.2,50.6,35.1,50.5,35,50.5 M43.6,49.6c-0.5-1.7-2.6-1.4-4.4-1.4h-0.6c-0.3,0,0.1,0.1,0.1,0.3c0,2,0,3.6,0,3.6     c0,0.2,0,0.3,0,0.5c0,0.4-0.4,0.5-0.6,0.4c-0.8-0.6-1-1.7-1.7-2.2c0.3-0.2,0.7-0.5,0.9-0.8c0.2-0.4,0.2-1.1-0.2-1.4     c-0.3-0.3-0.9-0.4-1.5-0.4h-1.8c-0.4,0,0.1,0.1,0.1,0.4c0.1,1.6,0,4.6,0,4.6h1.2c0-0.1-0.3-0.1-0.4-0.3c0,0,0-1.7,0-1.8     C34.9,51,35,51,35,51c0.3,0,0.6-0.1,0.8,0.2c0.2,0.3,1,2,2,2.3c0.1,0,0.3,0.1,0.4,0c0.4,0,0.7-0.1,1-0.3c1.2,0.1,2.6,0.3,3.6-0.5     C43.9,51.9,43.9,50.7,43.6,49.6 M32.2,52.1c-0.1,0.1-0.1,0.1-0.2,0.2c-0.7,0.5-2.4,0.2-2.9-0.4c-0.2-0.4-0.3-0.9-0.3-1.4     c0-0.4,0-0.9,0.3-1.2c0.5-0.8,2.5-0.4,3.1,0.3C32.7,50.2,32.5,51.7,32.2,52.1 M31.8,48.2c-1.2-0.2-2.5,0-3.3,0.7     c-0.7,0.7-1,3.1,0.5,3.9c0.9,0.5,2.2,0.4,3,0c1.3-0.7,1.4-2.3,1-3.5C32.9,48.7,32.3,48.4,31.8,48.2 M53,48.2     c0,0.1,0.3,0.1,0.4,0.3c0.2,1.1,0.1,3.6,0.1,3.6c-1.4-1.2-2.5-2.6-3.6-4c-0.1-0.1-0.3,0-0.4,0h-0.7l0,0c0,0.1,0.2,0.1,0.4,0.3     c0.1,0.1,0.2,0.3,0.2,0.5c0,0.5,0,0.9,0,1.5c0,0.6-0.1,2.5-0.1,2.5l0,0.1c0,0,0.2,0,0.2,0h0.6l0,0c0-0.1-0.3-0.1-0.3-0.4     c0-0.2,0-0.8-0.1-1.3c0-0.7,0-1.2,0-1.8c1.2,1.3,3.8,3.8,4,4c0.1,0.1,0.1,0,0.1,0c0.1-1.7,0.1-3.7,0.2-5.5L53,48.2L53,48.2z      M31.6,38.5c0.5,0.7,0.8,1.9,0.1,2.9C31.2,40.6,31.3,39.3,31.6,38.5 M29.5,41.4c-0.5-0.8-0.4-2.1,0-2.9     C29.9,39.3,30.2,40.6,29.5,41.4 M35,40.5c0.3-1.7-0.5-3.4-1.4-4.5c-0.2,0.9,0,3.4,0.2,5c0.5-1.1,0-2.3,0.1-3.5     c0.3,0.5,0.5,0.9,0.7,1.4c0.3,0.8,0.1,1.9-0.6,2.7c-0.4,0.4-1,0.7-1.5,0.5c-0.2-0.1-0.4-0.3-0.4-0.3s0.1-0.4,0.3-1     c0.3-1.3,0.1-2.4-0.8-3.8c-0.7,1.5-0.8,3.4-0.3,4.9c-0.6,0.6-1.3,0.3-1.5,0.1c0.8-1.4,0.6-3.4-0.3-4.9c-0.7,1.3-0.9,3.2-0.4,4.9     c-0.7,0.7-1.7,1.1-2.5,1.5c1.1-0.1,2.1-0.1,2.9-0.8c0.3,0.3,0.6,0.6,1.1,0.6c0.5,0,1-0.3,1.2-0.6c0.6,0.6,1.4,0.5,1.8,0.3     C34.4,42.4,34.9,41.4,35,40.5 M58.3,50.9c0.4-1,0.6-1.8,0.6-1.8c0.3,0.5,0.7,1.8,0.7,1.8H58.3z M61.6,52.6     c-0.9-1.4-1.5-3-2.1-4.5h-1.2l0,0c0,0,0.4,0.2,0.3,0.8c-0.2,0.9-0.6,1.9-1.7,4.1l-0.1,0.2c0,0,0,0,0.1,0h1l0,0     c0-0.1-0.4-0.1-0.4-0.4c0.1-0.4,0.4-1,0.6-1.5h1.6c0.3,0.6,0.6,1.2,1,1.8c0,0,0.1,0.1,0.1,0.1c0,0,0.2,0,0.2,0c0.2,0,1,0,1,0l0,0     C62.1,53.1,61.9,53.1,61.6,52.6 M66.1,48.2c0,0.1,0.3,0.1,0.4,0.3c0.2,1.1,0.1,3.6,0.1,3.6c-1.4-1.2-2.5-2.6-3.6-4     c-0.1-0.1-0.3,0-0.4,0h-0.8l0,0c0,0.1,0.2,0.1,0.4,0.3c0.1,0.1,0.2,0.3,0.2,0.5c0,0.5,0,0.9,0,1.5c0,0.6-0.1,2.5-0.1,2.5l0,0.1     c0,0,0.2,0,0.2,0h0.6l0,0c0-0.1-0.3-0.1-0.4-0.4c0-0.2,0-0.8-0.1-1.3c0-0.7,0-1.2,0-1.8c1.2,1.3,3.8,3.8,4,4c0.1,0.1,0.1,0,0.1,0     c0.1-1.7,0.1-3.7,0.2-5.5L66.1,48.2L66.1,48.2z M26.9,48.2h-1l0,0c0,0.1,0.3,0.1,0.3,0.4c0,0.2,0,1.3,0.1,1.9v2     c0,0,0,0.4-0.1,0.7c-0.2,0.5-0.9,1-1.5,1c-0.8,0-1.9-0.4-1.4-1.8c-0.1,0-0.2,0.2-0.4,0.2c-0.6,0.2-1.5,0.2-2.1,0     c0-0.6,0-1.2,0-1.9v-2.4l0-0.2c0,0-0.2,0-0.2,0h-1l0,0c0,0.1,0.3,0.1,0.4,0.4c0,0.1,0,0.5,0,0.8c0,1.2,0,2.6,0,3.8h3     c0,0-0.1,0.8,0.2,1.2c0.4,0.5,1.1,0.5,1.8,0.3c1-0.3,2.2-1.1,2.3-2.1c0-0.6,0-1.1,0-1.7l0-2.5l0-0.2     C27.1,48.2,26.9,48.2,26.9,48.2 M62.6,43.1L62.6,43.1c1.1,0,2,0.1,2.9-0.3c0.8-0.4,1.1-1.2,1.3-1.9c0.6-2.1,0-4.2-1.6-5.6     c-0.4,1.3,0.1,2.7,0.2,3.9c0.1,0.4,0,0.9,0.1,1.4c0.5-1.3,0.1-2.6-0.1-3.8l0-0.1c0.8,1,1.4,1.9,1.3,3.1     C66.5,42,64.2,42.5,62.6,43.1 M56.1,52.8c0-0.2-0.1-1.3-0.1-1.9l0-2.5l0-0.2c0,0-0.2,0-0.2,0h-1l0,0c0,0.1,0.3,0.1,0.3,0.4     c0,0.2,0.1,1.3,0.1,1.9l0,2.1c0,0.2,0,0.4,0,0.4c0,0,0,0.1,0,0.1c0,0,0.2,0,0.2,0h1l0,0C56.4,53.1,56.1,53.1,56.1,52.8      M55.2,42.8c-0.4,0.2-0.9,0.3-1.4,0.4c-0.4,0.1-0.4,0.7-0.6,1c0.4-0.2,0.9-0.3,1.3-0.4C55,43.6,55,43.1,55.2,42.8 M2,43.1     c0.3,0,0.4-0.2,0.6-0.5c0.5-1,0.7-2.3,1.6-2.5c0.1,0.1,0.1,0.3,0.1,0.5c0.3,1.4,1.6,2,2.7,2.2c3.8,0.8,7.4-0.3,10.3-2.8l0,0     c-0.2,0.9,0.4,1.3,0.9,1.2c0.6-0.1,0.8-0.8,1.1-1.2c0.1-0.3,0.2-0.5,0.3-0.7c0.1-0.2,0.1-0.3,0.1-0.5l-0.1,0.1     c-0.4,0.3-0.5,0.9-0.9,1.2c-0.1,0.1-0.4,0.2-0.6,0.2c-0.3-0.1-0.3-0.3-0.4-0.6c0-0.2,0.1-0.5,0.1-0.6v-0.1     c-2.3,2-5.1,3.1-8.2,3.3c-1.9,0-3.8-0.2-4.9-1.8c-0.2-0.3-0.3-0.8-0.4-1.1c-0.3-0.1-0.6,0.2-0.8,0.3c-0.8,0.7-0.8,1.8-1.6,2.5     c-0.4,0.2-1-0.2-1-0.8c0-0.9,0.6-1.6,1.3-2.2c1.1-0.9,2-2,2.2-3.3C4,36,3.4,36.1,2.8,36.2c-0.3,0.1-0.4,0.6-0.5,1     c0.5-0.2,1-0.2,1.5-0.4l0,0c-0.5,1.1-1.6,1.5-2.5,2.4c-0.8,0.9-1,2.2-0.5,3.2C1.1,43,1.5,43.2,2,43.1 M10.8,39     c0.1,0.4,0.6,0.1,0.8-0.2c0,0.1,0.1,0.1,0.2,0.1c0.1,0,0.2,0,0.3-0.2c0.1-0.1,0.1-0.4,0-0.5l0,0.2c0,0.1-0.1,0.2-0.2,0.2     c-0.1,0-0.1-0.1-0.1-0.2c-0.1,0-0.1,0.3-0.4,0.4c-0.1,0-0.3,0.1-0.3,0c-0.1-0.1,0-0.2,0.1-0.4C10.9,38.5,10.8,38.8,10.8,39      M23.1,43.3c0.8,0,2.1-0.2,2.5-0.4c0.8-0.4,1.1-1.2,1.3-2.1c0.2-0.8-0.1-1.3,0.4-1.6c0.2-0.1,0.1-0.5,0.2-0.8     c0,0-0.1-0.1-0.1-0.1c-0.6,0.2-0.6,0.8-0.6,1.4c-0.3,1.8-1.9,3-3.4,3.5L23.1,43.3z M22.3,41.4l0-0.4c0.1-0.8-0.9-1.2-1.1-1.9     c0-0.2,0.1-0.4,0.3-0.6c0.3-0.3,0.8-0.4,1.2-0.3c0.6,0.2,0.8,0.7,0.8,1.3c-0.4,2-2.6,2.9-4.2,3.7l0.1,0c1-0.1,1.7-0.3,2.5-0.6     c0.8-0.3,1.4-1.2,1.6-2c0.3-0.9,0.5-2.3-0.2-3.2c-0.4-0.4-1-0.6-1.6-0.3c-0.5,0.2-0.9,0.8-1,1.4C20.8,39.8,21.4,40.8,22.3,41.4      M7.6,38c2.2-0.5,4.5-1,6.6-1.6c0.2-0.1,0.8-0.2,0.8-0.5c-2.3,0.6-4.7,1.2-7.1,1.7l-0.1,0.2C7.7,37.7,7.5,37.9,7.6,38 M19.4,36.9     c-0.2-0.2-0.6-0.4-0.8-0.5c-0.1,0.2-0.3,0.5-0.4,0.8c0.3,0.2,0.5,0.3,0.8,0.5C19.3,37.4,19.4,37.1,19.4,36.9 M15.2,43.8     c0.4-0.2,0.9-0.3,1.4-0.4c0.4-0.2,0.4-0.7,0.6-1c-0.4,0.2-0.9,0.3-1.4,0.4C15.3,42.9,15.3,43.4,15.2,43.8 M15.9,50.9     c0.4-1,0.5-1.8,0.5-1.8c0.3,0.5,0.7,1.8,0.7,1.8H15.9z M19.1,52.6c-0.9-1.4-1.5-3-2.1-4.5h-1.2l0,0c0,0,0.5,0.2,0.3,0.8     c-0.2,0.9-0.6,1.9-1.7,4.1l-0.1,0.2c0,0,0,0,0.1,0h1l0,0c0-0.1-0.4-0.1-0.4-0.4c0.1-0.4,0.4-1,0.6-1.5h1.6c0.3,0.6,0.6,1.2,1,1.8     c0,0,0.1,0.1,0.1,0.1c0,0,0.2,0,0.2,0c0.2,0,1,0,1,0l0,0C19.7,53.1,19.4,53.1,19.1,52.6 M52.7,35.4c-2.4,0.7-5,1.5-7.5,2.1     l-0.3,0.6c2.5-0.7,5.1-1.4,7.6-2.3L52.7,35.4z M48.5,38.5c-0.1,0.1-0.1,0.2-0.2,0.3c-0.1,0.1-0.1,0.4,0.1,0.5     c0.1,0.1,0.4,0,0.6-0.3c0.1,0,0.2,0.1,0.3,0c0.2-0.1,0.2-0.5,0.2-0.7c-0.1,0.1,0,0.3-0.2,0.4c-0.1,0.1-0.3-0.1-0.3-0.2     c-0.1,0.1-0.1,0.3-0.3,0.4c-0.1,0-0.2,0.1-0.3,0C48.4,38.8,48.6,38.6,48.5,38.5 M27.8,36.8c0.4-0.1,0.8-0.2,1.1-0.4     c0.2-0.2,0.4-0.5,0.3-0.8c-0.1-0.3-0.4,0.2-0.7,0.1c-0.1-0.1,0.2-0.4,0.4-0.3c0.1-0.1,0.1-0.2,0.1-0.2c0-0.1-0.2-0.1-0.2,0     c-0.3,0.2-0.5,0.4-0.5,0.8c0.1,0.4,0.4-0.1,0.7,0C28.7,36.4,28.1,36.5,27.8,36.8" class="st0"/><path d="M67.5,24.9c0,0,0.2,0.3,0.3,0.6c0,0-0.5,0-0.7,0.1c0,0,0,0.1,0.3,0.4c0,0,0,0.1-0.1,0.1     c-0.1,0.1-0.6,0.1-0.6-0.4c0,0-0.3,0.4-0.8,0.3c0,0-0.4,0-0.4-0.4c0,0,0.3,0.1,0.6-0.1c0,0,0-0.2-0.3-0.4c0,0,0.2-0.3,0.8-0.5     c0,0-0.1-0.5,0-1c0.2-0.5,0.2-0.6,0.3-0.7c0-0.1,0.1-0.4,0-0.6c0,0,1.3,0,1.3,1.3C68.3,23.8,68.3,24.5,67.5,24.9 M66.1,27.2     l-0.7-0.3l0.7-0.2l0.7,0.3L66.1,27.2z M64.9,26c-0.4,0-0.6-0.5-0.6-0.5c-0.2,0.3-0.7,0.2-0.7,0.2c-0.4-0.1-0.4-0.4-0.4-0.4     c0.4-0.1,0.5-0.2,0.5-0.2c-0.1-0.2-0.5-0.4-0.5-0.4c0.3-0.4,0.8-0.6,0.8-0.6c-0.2-0.2-0.3-0.4-0.3-0.8c-0.1-0.4,0-0.9,0-0.9     c0.1-0.5,0.3-0.8,0.5-1c0.2-0.2,0.4-0.2,0.4-0.2c0.2,0,0.5,0.2,0.5,0.2c0.3,0.2,0.5,0.4,0.6,0.5c0.1,0.1,0.4,0.7,0,1.5     c-0.3,0.8-0.7,0.9-0.7,0.9c0.5,0.5,0.5,0.7,0.5,0.7c-0.4,0-0.6,0.2-0.6,0.2c0.1,0.2,0.4,0.3,0.4,0.3C65.2,26,64.9,26,64.9,26      M64.6,27.1c-0.1,0-0.3-0.1-0.3-0.3c0-0.2,0.1-0.3,0.3-0.3c0.1,0,0.3,0.1,0.3,0.3C64.8,27,64.7,27.1,64.6,27.1 M63.1,27.1     l-0.7-0.3l0.7-0.3l0.7,0.3L63.1,27.1z M61.9,25.5c0,0-0.2,0.4-0.6,0.5c0,0-0.4,0-0.4-0.3c0,0,0.3-0.1,0.4-0.3     c0,0-0.1-0.2-0.6-0.2c0,0,0-0.2,0.5-0.7c0,0-0.4-0.1-0.7-0.9c-0.3-0.8-0.1-1.4,0-1.5c0.1-0.1,0.3-0.4,0.6-0.5     c0,0,0.2-0.1,0.5-0.2c0,0,0.2,0,0.4,0.2c0.2,0.2,0.4,0.5,0.5,1c0,0,0.1,0.6,0,0.9c-0.1,0.4-0.1,0.6-0.3,0.8c0,0,0.5,0.2,0.8,0.6     c0,0-0.4,0.1-0.5,0.4c0,0,0.1,0.1,0.5,0.2c0,0,0,0.3-0.4,0.4C62.5,25.8,62.1,25.8,61.9,25.5 M61.6,27.1c-0.1,0-0.3-0.1-0.3-0.3     c0-0.1,0.1-0.3,0.3-0.3c0.1,0,0.3,0.1,0.3,0.3C61.8,27,61.7,27.1,61.6,27.1 M60,27.2l-0.7-0.3l0.7-0.3l0.7,0.2L60,27.2z      M58.8,26.2c-0.1-0.1-0.1-0.1-0.1-0.1c0.2-0.3,0.3-0.4,0.3-0.4c-0.2-0.2-0.7-0.1-0.7-0.1c0.1-0.4,0.3-0.6,0.3-0.6     c-0.7-0.3-0.7-1.1-0.7-1.1c0-1.4,1.3-1.3,1.3-1.3c-0.1,0.3,0,0.5,0,0.6c0,0.1,0.1,0.2,0.3,0.7c0.2,0.5,0,0.9,0,0.9     c0.5,0.2,0.8,0.5,0.8,0.5C60,25.4,60,25.6,60,25.6c0.3,0.1,0.6,0.1,0.6,0.1c0,0.3-0.4,0.4-0.4,0.4c-0.4,0.1-0.8-0.3-0.8-0.3     C59.4,26.3,58.9,26.2,58.8,26.2 M69.4,23.7c0.3-0.1,0.2-0.4,0.2-0.4C69.6,23,69.2,23,69.2,23c0.2-0.3,0-0.5,0-0.5     c-0.2-0.2-0.5-0.1-0.5-0.1c0.1-0.3,0-0.4,0-0.4c-0.2-0.2-0.5,0-0.5,0c0-0.3-0.2-0.3-0.2-0.3c-0.2-0.1-0.4,0.1-0.4,0.1     c-0.2-0.5-0.5-0.2-0.6-0.2c-0.1,0-0.1,0-0.1,0c0-0.6-0.5-0.4-0.5-0.4c0.1-0.3-0.1-0.5-0.1-0.5c-0.3-0.2-0.5,0.1-0.5,0.1     c0-0.4-0.3-0.3-0.4-0.2c-0.1,0-0.3,0-0.3,0c-0.6-0.1-0.8,0-0.8,0c-0.7,0-1.3,1.2-1.3,1.2v0l0,0c0,0-0.6-1.2-1.3-1.2     c0,0-0.2,0-0.8,0c0,0-0.2,0-0.3,0c-0.1,0-0.4-0.1-0.4,0.2c0,0-0.2-0.2-0.5-0.1c0,0-0.2,0.2-0.1,0.5c0,0-0.5-0.2-0.5,0.4     c0,0,0,0-0.1,0c-0.1,0-0.4-0.3-0.6,0.2c0,0-0.2-0.2-0.4-0.1c0,0-0.2,0.1-0.2,0.3c0,0-0.2-0.2-0.5,0c0,0-0.2,0.1,0,0.4     c0,0-0.3-0.1-0.5,0.1c0,0-0.2,0.2,0.1,0.5c0,0-0.4,0-0.4,0.3c0,0,0,0.3,0.2,0.4c0,0-0.3,0.1-0.3,0.4c0,0,0,0.2,0.3,0.3     c0,0-0.3,0.2-0.2,0.4c0,0,0.1,0.3,0.5,0.2c0,0-0.1,0.3,0.1,0.4c0,0,0.2,0.2,0.4,0c0,0,0.1,0,0.2,0c0,0,0.1,0.1-0.1,0.3     c0,0,1-0.1,1.3,1.5h8.2c0.3-1.6,1.3-1.5,1.3-1.5c-0.2-0.2-0.1-0.3-0.1-0.3c0-0.1,0.2,0,0.2,0c0.2,0.2,0.4,0,0.4,0     c0.2-0.1,0.1-0.4,0.1-0.4c0.4,0.1,0.5-0.2,0.5-0.2c0.1-0.3-0.2-0.4-0.2-0.4c0.3,0,0.3-0.3,0.3-0.3C69.7,23.9,69.4,23.7,69.4,23.7      M59,28.3c0,0.2,0,0.4,0,0.4h8c0,0,0-0.2,0-0.3c0-0.2,0-0.3,0-0.3H59C59,28,59,28.2,59,28.3 M62.6,20.3c0,0-0.3,0-0.4,0.1     c0,0,0.6,0.2,0.9,0.9c0.3-0.7,0.9-0.9,0.9-0.9c-0.2-0.1-0.4-0.1-0.4-0.1c0-0.1-0.1-0.2-0.1-0.2c0.1-0.1,0.2-0.2,0.2-0.2l-0.6-1.3     L62.5,20c0,0,0.2,0.1,0.2,0.2C62.7,20.2,62.6,20.3,62.6,20.3" class="st0"/></g></g></g></svg>