<svg xmlns="http://www.w3.org/2000/svg" id="d25bbad1-a282-4e29-94b4-25066ad96a41" width="87" height="87" viewBox="0 0 87.17 87.17"><defs><style>
            .dcd60e37-21e4-4328-9d68-72ecb772de2d{fill:#0a5499;}
            .e2fec109-d285-4822-be8d-06c36dd8d320{fill:#fade38;}
            .b0c0fb7c6-10ed-45d6-a51a-7582758374bc{fill:none;stroke:#fff;stroke-miterlimit:10;}
            .ac1885e3-620d-4d21-ba9c-6825a5f4e524{fill:#27a3db;}
            .b6329d67f-7d9e-4aa2-9213-7ba6c9357a73{fill:#94c34f;}
        </style></defs><title/><rect width="87.17" height="87.17" class="dcd60e37-21e4-4328-9d68-72ecb772de2d"/><polygon points="50.29 16.38 45.92 28.5 43.5 17.63 42.17 29.75 36.67 21.25 38.67 32.13 30.17 25.75 35.54 34.75 24.79 31.75 32.92 37.88 21.29 37.88 30.92 41.13 18.67 44.5 30.04 44.5 17.79 50.88 30.54 48.25 19.04 56.75 31.54 51.13 22.17 61.25 33.42 53.13 26.67 64.5 36.29 54.5 32.67 66 39.67 54.88 39.04 66 43.5 54.13 45.67 64.38 46.92 52.75 52.67 61.25 50.79 50.88 58.92 56.75 53.67 47.88 64.17 50.88 56.42 44.63 67.79 44.75 58.29 41.19 70.79 38.25 58.79 38 70.79 32 59.42 34.5 70.17 26.13 57.67 31.63 66.92 21.88 55.79 29.5 62.54 18.25 52.79 28.25 57.17 16.38 49.54 28.25 50.29 16.38" class="e2fec109-d285-4822-be8d-06c36dd8d320"/><path d="M53,42.93c-2.83,5.15-9,8.73-13.83,8s-6.42-5.52-3.59-10.67,9-8.73,13.83-8S55.83,37.78,53,42.93Z" class="b0c0fb7c6-10ed-45d6-a51a-7582758374bc"/><path d="M65,16.38s-16.59-5.87-30.86,5S17.79,41.19,17.79,41.19H7.42A46.18,46.18,0,0,1,31.92,17.5C50.29,9.88,65,16.38,65,16.38Z" class="ac1885e3-620d-4d21-ba9c-6825a5f4e524"/><path d="M24.17,66.4s16.59,5.88,30.86-5S71.42,41.59,71.42,41.59H81.79a46.18,46.18,0,0,1-24.5,23.69C38.92,72.9,24.17,66.4,24.17,66.4Z" class="b6329d67f-7d9e-4aa2-9213-7ba6c9357a73"/></svg>