<svg xmlns="http://www.w3.org/2000/svg" version="1.1" id="Layer_1" x="0px" y="0px" width="70" height="70" viewBox="0 0 70 70" xml:space="preserve" style="enable-background:new 0 0 70 70;"><style type="text/css">
	.st0{fill:#FFFFFF;}
	.st1{fill:#C90019;}
</style><g><path d="M38.6,0.7C55.7,2.5,69,16.9,69,34.5c0,18.8-15.2,34-34,34c-18.8,0-34-15.2-34-34c0-18.8,15.2-34,34-34   C36.2,0.5,37.4,0.6,38.6,0.7z M40.3,66.1c17.5-2.9,29.2-19.5,26.3-36.9C64.2,14.7,52.3,4.1,38.4,2.6c-2.8-0.3-5.7-0.2-8.7,0.3   C26.2,3.5,23,4.6,20,6.2c15.4,5.2,23.7,13.2,24.2,21.3c0.3,5-2.1,8.7-5.1,11.6l21.8-1.5c0.6,0,0.8,0.7,0.1,0.9L9,53.3   c5.3,7.3,13.5,12.1,22.6,13.1C34.5,66.7,37.4,66.6,40.3,66.1z M26,35.2c2.8-10.7-0.4-21.9-8.2-27.9C7.3,14.1,1.2,26.7,3.4,39.8   c0.7,4.3,2.3,8.3,4.5,11.8C16.2,49.3,23.4,45,26,35.2z" class="st0"/><path d="M66.6,29.2c2.9,17.5-8.8,34-26.3,36.9c-2.9,0.5-5.9,0.6-8.7,0.3c-9.1-1-17.3-5.8-22.6-13.1L61,38.4   c0.7-0.2,0.6-0.9-0.1-0.9l-21.8,1.5c3.1-3,5.4-6.6,5.1-11.6C43.7,19.3,35.4,11.4,20,6.2c3-1.6,6.2-2.7,9.7-3.3   c2.9-0.5,5.9-0.6,8.7-0.3C52.3,4.1,64.2,14.7,66.6,29.2z M3.4,39.8c0.7,4.3,2.3,8.3,4.5,11.8C16.2,49.3,23.4,45,26,35.2   c2.8-10.7-0.4-21.9-8.2-27.9C7.3,14.1,1.2,26.7,3.4,39.8z" class="st1"/></g></svg>