<svg xmlns="http://www.w3.org/2000/svg" version="1.1" id="Layer_1" x="0px" y="0px" width="70px" height="70px" viewBox="0 0 70 70" enable-background="new 0 0 70 70" xml:space="preserve"><metadata/><switch><g><rect width="70" fill="none" height="70"/><linearGradient id="SVGID_1_" gradientTransform="matrix(1 0 0 1 -271 -359)" gradientUnits="userSpaceOnUse" x1="284.4102" x2="327.9775" y1="377.002" y2="397.3178"><stop offset="0.4847" style="stop-color:#DD1D3D"/><stop offset="1" style="stop-color:#931A22"/></linearGradient><path fill="url(#SVGID_1_)" d="M39.1,11.6c9.4,0,29.5,0,29.5,0L47.8,58c0,0-9.7,3.7-21.8-4.1C14.2,46.3,11.8,44.4,1.1,44.4     c0,0,24-26.5,25.7-28.2C28.5,14.5,30.5,11.6,39.1,11.6z"/><g><g><g><defs><path id="SVGID_2_" d="M36.8,11.6c-6.7,0.5-8.5,3.1-10,4.6C25.1,18,1.1,44.4,1.1,44.4c2.9,0,5.1,0.1,7.2,0.5L36.8,11.6z"/></defs><clipPath id="SVGID_3_"><use xmlns:xlink="http://www.w3.org/1999/xlink" xlink:href="#SVGID_2_" overflow="visible"/></clipPath><linearGradient id="SVGID_4_" gradientTransform="matrix(1 0 0 1 -271 -359)" gradientUnits="userSpaceOnUse" x1="295.5703" x2="327.9097" y1="377.9463" y2="407.3728"><stop offset="0" style="stop-color:#DD1D3D"/><stop offset="0.005" style="stop-color:#FFFFFF"/><stop offset="0.0736" style="stop-color:#DD1D3D"/></linearGradient><path clip-path="url(#SVGID_3_)" fill="url(#SVGID_4_)" d="M39.1,11.9c9.4,0,29.5,0,29.5,0L47.8,58.3c0,0-9.7,3.7-21.8-4.1        C14.2,46.6,11.8,44.7,1.1,44.7c0,0,24-26.5,25.7-28.2C28.5,14.9,30.5,11.9,39.1,11.9z"/></g></g></g><g><path fill="#FFFFFF" d="M33.4,19.4c1-1,0.8-2.1,0-2.6c-0.7-0.5-1.3-0.3-2.1,0.5c-0.8,0.8-2.8,6.5-4.1,10.8      c-1.3,4.3-2.8,12.8-2.8,12.8C24.3,39.6,23,33.1,22.8,31.3c-0.2-1.8-0.7-1.9-1.3-1.9s-0.7,0.5-0.9,0.9c-0.2,0.4-1.9,5.9-2.4,6.8      C18,37.5,18,38.3,18.4,38.4c0.4,0.199,1,0,1.2-0.601c0.2-0.6,1.5-3.8,1.5-3.8s0.3,0.6,0.5,1.9c0.1,1.3,1,6.8,1.4,9.199      c0.4,2.4,0.5,3.601,1.5,3.5c1-0.1,1.2-4,1.8-9c0.6-5,2.7-12.1,4-15.1C31.7,21.6,32.4,20.4,33.4,19.4z"/><path fill="#FFFFFF" d="M29.9,34.3c-0.6,0.2-1,1.4-1,2.2c0,0-0.2,3.7-0.2,4.7s0.7,0.8,1.2,0.5s0.6-0.7,0.7-1.2s0.5-4.7,0.5-5.6      C31,33.8,30.5,34.1,29.9,34.3z"/><path fill="#FFFFFF" d="M31.8,29.9c-0.2-0.4-0.7-0.2-1.1,0.1c-0.4,0.3-0.9,0.8-0.7,1.3s0.6,0.4,1.3,0      C31.9,31,32.1,30.5,31.8,29.9z"/><path fill="#FFFFFF" d="M45.5,34.2c0.5-0.2,0.6-0.7,0.6-1.2c0.101-0.5,0.4-4.4,0.4-5.3c0-0.9-0.5-0.6-1.1-0.4      c-0.601,0.2-1,1.3-1,2c0,0-0.2,3.5-0.101,4.4C44.3,34.7,45,34.5,45.5,34.2z"/><path fill="#FFFFFF" d="M46.7,24.9c0.7-0.4,0.899-0.9,0.5-1.4c-0.3-0.3-0.7-0.2-1.101,0.1C45.7,23.9,45.2,24.3,45.4,24.8      C45.7,25.4,46.1,25.3,46.7,24.9z"/><path fill="#FFFFFF" d="M32.7,34c-0.1,0.6-0.3,3.8-0.3,4.8s0.4,1.2,1.1,1s0.8-1,0.9-1.6c0.1-0.601,0.1-1.4,0.1-2.2      s0.4-1.9,1.1-2.4c0.801-0.5,0.801-1,0.601-1.4c-0.2-0.4-0.5-0.3-0.8-0.1c-0.3,0.2-0.8,0.5-1.5,0.4C33.2,32.5,32.8,33.4,32.7,34z"/><path fill="#FFFFFF" d="M58,29.7c-0.1-0.6-0.8-0.7-1.3-0.5c-0.5,0.1-2,1.1-2.5,1.1s-0.5-0.6-0.5-1c0-0.5,0-2.8,0-3.7      s0.1-1.4-0.9-1.4s-1.6,1.1-2.1,1.4c-0.5,0.3-0.7,0.1-1.601,0.2c-0.899,0.1-1,0.7-1.1,1.1s-0.3,2.7-0.3,4.4c0,1.7,0.399,1.5,1,1.3      c0.7-0.2,0.899-0.9,0.899-1.2c0-0.3,0.101-1.9,0.2-2.9c0.101-1,0.8-2.1,1.601-2.3c0.8-0.2,0.399,2.1,0.3,3.7      c0,1.6,0.6,1.6,0.6,1.6s-2.899,1.6-5.2,2.9c-2.3,1.3-4.8,3-4.8,3s0.3-5.9,0.4-7.2c0.1-1.3-0.101-1.3-0.7-1.3      c-0.5,0-1.1,0.5-1.1,1s-0.301,3.5-0.4,4.6c-0.1,1.1-0.8,1.8-1.4,1.8c-0.6,0-0.3-1.3-0.3-2.3c0-0.9,0.7-2.7,1.101-3      c0.399-0.3,0.5-0.9,0.399-1.2c-0.2-0.3-0.8-0.1-1.7,0.5c-0.899,0.7-1.5,2.3-1.5,4.6C37,37.1,37.4,37.8,38.3,38      c0.9,0.2,2.3-0.8,2.3-0.8l0.101,1.1c0,0-4.101,2.9-5.9,4.3C33,44.1,28,48.4,27.7,48.8c-0.3,0.4-0.9,1.101-0.2,1.9      s1.6-0.101,2.4-0.9c0.8-0.8,3.4-3.6,5.4-5.3s5.3-4.1,5.3-4.1s0,2.8,0,4.399c0,1.601-0.1,3.9-0.199,5.101      C40.3,51.1,40.9,52.1,41.6,52c0.7,0,1.101-0.2,1.101-1.3c0-1.2-0.5-2.3-0.5-3.7c0-1.3,0.1-7.9,0.1-7.9S51,33.7,52.5,32.9      c1.5-0.8,3-1.3,4.1-1.6C57.9,31.2,58.1,30.3,58,29.7z"/></g></g></switch></svg>